SplineFontDB: 3.0
FontName: Rokkitt-Light
FullName: Rokkitt Light
FamilyName: Rokkitt
Weight: Light
Copyright: Copyright (c) 2011 by vernon adams. All rights reserved.
Version: 1.000
FONDName: Rokkitt
ItalicAngle: 0
UnderlinePosition: -205
UnderlineWidth: 102
Ascent: 1638
Descent: 410
UFOAscent: 1234
UFODescent: -322
LayerCount: 2
Layer: 0 0 "Back"  1
Layer: 1 0 "Fore"  0
NeedsXUIDChange: 1
FSType: 0
OS2Version: 0
OS2_WeightWidthSlopeOnly: 0
OS2_UseTypoMetrics: 0
CreationTime: 1333809750
ModificationTime: 1333813698
PfmFamily: 17
TTFWeight: 300
TTFWidth: 5
LineGap: 0
VLineGap: 0
Panose: 2 0 5 3 5 0 0 2 0 3
OS2TypoAscent: 1593
OS2TypoAOffset: 0
OS2TypoDescent: -594
OS2TypoDOffset: 0
OS2TypoLinegap: 0
OS2WinAscent: 1593
OS2WinAOffset: 0
OS2WinDescent: 594
OS2WinDOffset: 0
HheadAscent: 1593
HheadAOffset: 0
HheadDescent: -594
HheadDOffset: 0
OS2SubXSize: 1331
OS2SubYSize: 1228
OS2SubXOff: 0
OS2SubYOff: 153
OS2SupXSize: 1331
OS2SupYSize: 1228
OS2SupXOff: 0
OS2SupYOff: 716
OS2StrikeYSize: 102
OS2StrikeYPos: 509
OS2Vendor: 'newt'
OS2CodePages: 20000001.00000000
OS2UnicodeRanges: 800000ef.4000204b.00000000.00000000
Lookup: 4 0 1 "'liga' Standard Ligatures in Latin lookup 0"  {"'liga' Standard Ligatures in Latin lookup 0-1"  } ['liga' ('DFLT' <'dflt' > 'latn' <'dflt' > ) ]
Lookup: 258 0 0 "'kern' Horizontal Kerning lookup 0"  {"'kern' Horizontal Kerning lookup 0 per glyph data 0" [307,30,0] "'kern' Horizontal Kerning lookup 0 kerning class 1"  } ['kern' ('DFLT' <'dflt' > 'latn' <'dflt' > ) ]
MarkAttachClasses: 1
DEI: 91125
KernClass2: 35 31 "'kern' Horizontal Kerning lookup 0 kerning class 1" 
 81 A Aacute Abreve Acircumflex Adieresis Agrave Amacron Aogonek Aring Atilde uni0202
 1 B
 1 C
 75 D Eth O Oacute Ocircumflex Odieresis Ograve Oslash Otilde Q uni020C uni020E
 1 F
 19 H M N Nacute Ntilde
 1 J
 1 K
 1 L
 1 P
 44 R Racute Rcaron Rcommaaccent uni0210 uni0212
 23 S Sacute Scaron uni0218
 9 T uni021A
 45 U Uacute Ucircumflex Udieresis Ugrave uni0216
 1 V
 1 W

StartChar: A
Encoding: 55 65 1
Width: 1272
VWidth: 0
GlyphClass: 1
Flags: HW
PickledData: "(dp1
S'com.typemytype.robofont.layerData'
p2
(dp3
s."
LayerCount: 2
Fore
SplineSet
411 1234 m 1
 862 1234 l 1
 862 1171 l 1
 705 1171 l 1
 1120 62 l 1
 1278 62 l 1
 1278 0 l 1
 875 0 l 1
 875 62 l 1
 1034 62 l 1
 874 503 l 1
 399 503 l 1
 239 62 l 1
 398 62 l 1
 398 0 l 1
 -6 0 l 1
 -6 62 l 1
 153 62 l 1
 569 1171 l 1
 411 1171 l 1
 411 1234 l 1
636 1153 m 1
 420 564 l 1
 862 564 l 1
 636 1153 l 1
EndSplineSet
EndChar

StartChar: AE
Encoding: 155 198 2
Width: 1970
VWidth: 0
GlyphClass: 1
Flags: HW
LayerCount: 2
Fore
SplineSet
1582 1164 m 1
 918 1164 l 1
 1012 666 l 1
 1444 666 l 1
 1414 824 l 1
 1481 824 l 1
 1555 424 l 1
 1488 424 l 1
 1457 596 l 1
 1025 596 l 1
 1123 70 l 1
 1806 70 l 1
 1750 376 l 1
 1827 376 l 1
 1896 0 l 1
 868 0 l 1
 880 62 l 1
 1038 62 l 1
 961 503 l 1
 486 503 l 1
 244 62 l 1
 402 62 l 1
 390 0 l 1
 -12 0 l 1
 0 62 l 1
 157 62 l 1
 781 1171 l 1
 623 1171 l 1
 635 1234 l 1
 1645 1234 l 1
 1715 858 l 1
 1638 858 l 1
 1582 1164 l 1
845 1153 m 1
 519 564 l 1
 918 564 l 1
 845 1153 l 1
EndSplineSet
EndChar

StartChar: B
Encoding: 56 66 12
Width: 1192
VWidth: 0
GlyphClass: 1
Flags: HW
PickledData: "(dp1
S'com.typemytype.robofont.layerData'
p2
(dp3
s."
LayerCount: 2
Fore
SplineSet
70 0 m 1
 70 62 l 1
 223 62 l 1
 223 1171 l 1
 57 1171 l 1
 57 1234 l 1
 717 1234 l 2
 957 1234 1080 1082 1080 931 c 0
 1080 822 1027 716 909 654 c 1
 1075 608 1152 470 1152 338 c 0
 1152 169 1029 0 789 0 c 2
 70 0 l 1
789 62 m 2
 979 62 1072 200 1072 342 c 0
 1072 469 973 613 774 613 c 2
 304 613 l 1
 304 62 l 1
 789 62 l 2
304 1171 m 1
 304 678 l 1
 765 678 l 2
 919 678 1000 803 1000 928 c 0
 1000 1051 907 1171 717 1171 c 2
 304 1171 l 1
EndSplineSet
EndChar

StartChar: C
Encoding: 57 67 13
Width: 1306
VWidth: 0
GlyphClass: 1
Flags: HW
PickledData: "(dp1
S'com.typemytype.robofont.layerData'
p2
(dp3
s."
LayerCount: 2
Fore
SplineSet
1259 283 m 1
 1139 76 947 -23 685 -23 c 0
 387 -23 62 184 62 622 c 0
 62 982 331 1255 690 1255 c 0
 890 1255 1067 1178 1175 1027 c 1
 1175 1234 l 1
 1250 1234 l 1
 1250 887 l 1
 1188 874 l 1
 1116 1036 949 1182 702 1182 c 0
 351 1182 146 912 146 622 c 0
 146 330 324 48 702 48 c 0
 896 48 1082 131 1190 334 c 1
 1259 283 l 1
EndSplineSet
EndChar

StartChar: D
Encoding: 58 68 20
Width: 1357
VWidth: 0
GlyphClass: 1
Flags: HW
PickledData: "(dp1
S'com.typemytype.robofont.layerData'
p2
(dp3
s."
LayerCount: 2
Fore
SplineSet
57 1234 m 1
 750 1234 l 2
 1112 1234 1295 923 1295 614 c 0
 1295 306 1113 0 750 0 c 2
 57 0 l 1
 57 62 l 1
 223 62 l 1
 223 1171 l 1
 57 1171 l 1
 57 1234 l 1
749 1171 m 2
 305 1171 l 1
 305 62 l 1
 749 62 l 2
 1059 62 1211 338 1211 616 c 0
 1211 893 1058 1171 749 1171 c 2
EndSplineSet
EndChar

StartChar: uni2206
Encoding: 402 8710 23
Width: 760
VWidth: 0
GlyphClass: 1
Flags: HW
LayerCount: 2
Fore
SplineSet
699 66 m 1
 699 0 l 1
 63 0 l 1
 63 67 l 1
 380 1062 l 1
 699 66 l 1
110 61 m 1
 649 61 l 1
 380 935 l 1
 110 61 l 1
EndSplineSet
EndChar

StartChar: E
Encoding: 59 69 25
Width: 1120
VWidth: 0
GlyphClass: 1
Flags: HW
PickledData: "(dp1
S'com.typemytype.robofont.layerData'
p2
(dp3
s."
LayerCount: 2
Fore
SplineSet
978 1164 m 1
 314 1164 l 1
 314 666 l 1
 747 666 l 1
 747 824 l 1
 814 824 l 1
 814 424 l 1
 747 424 l 1
 747 596 l 1
 314 596 l 1
 314 70 l 1
 999 70 l 1
 999 376 l 1
 1076 376 l 1
 1076 0 l 1
 57 0 l 1
 57 70 l 1
 232 70 l 1
 232 1164 l 1
 57 1164 l 1
 57 1234 l 1
 1054 1234 l 1
 1054 858 l 1
 978 858 l 1
 978 1164 l 1
EndSplineSet
EndChar

StartChar: Eth
Encoding: 165 208 34
AltUni2: 000110.ffffffff.0
Width: 1434
VWidth: 0
GlyphClass: 1
Flags: HW
LayerCount: 2
Fore
SplineSet
790 1171 m 2
 346 1171 l 1
 346 662 l 1
 500 662 l 1
 500 597 l 1
 346 597 l 1
 346 62 l 1
 790 62 l 2
 1100 62 1252 338 1252 616 c 0
 1252 893 1099 1171 790 1171 c 2
109 597 m 1
 109 662 l 1
 264 662 l 1
 264 1171 l 1
 98 1171 l 1
 98 1234 l 1
 791 1234 l 2
 1153 1234 1336 923 1336 614 c 0
 1336 306 1154 0 791 0 c 2
 98 0 l 1
 98 62 l 1
 264 62 l 1
 264 597 l 1
 109 597 l 1
EndSplineSet
EndChar

StartChar: Euro
Encoding: 399 8364 35
Width: 1303
VWidth: 0
GlyphClass: 1
Flags: HW
LayerCount: 2
Fore
SplineSet
901 794 m 1
 901 732 l 1
 272 732 l 1
 265 696 262 660 262 622 c 0
 262 584 265 550 269 517 c 1
 901 517 l 1
 901 455 l 1
 280 455 l 1
 340 190 548 47 785 47 c 0
 913 47 1048 89 1175 174 c 1
 1209 110 l 1
 1076 23 925 -22 779 -22 c 0
 507 -22 257 134 194 455 c 1
 10 455 l 1
 10 517 l 1
 184 517 l 1
 181 551 178 584 178 622 c 0
 178 659 181 696 187 732 c 1
 10 732 l 1
 10 794 l 1
 200 794 l 1
 273 1070 517 1255 771 1255 c 0
 901 1255 1033 1207 1147 1099 c 1
 1147 1237 l 1
 1222 1237 l 1
 1222 1007 l 1
 1160 994 l 1
 1042 1123 904 1178 772 1178 c 0
 555 1178 355 1025 286 794 c 1
 901 794 l 1
EndSplineSet
EndChar

StartChar: F
Encoding: 60 70 36
Width: 1062
VWidth: 0
GlyphClass: 1
Flags: HW
PickledData: "(dp1
S'com.typemytype.robofont.layerData'
p2
(dp3
s."
LayerCount: 2
Fore
SplineSet
985 1164 m 1
 314 1164 l 1
 314 643 l 1
 807 643 l 1
 807 817 l 1
 874 817 l 1
 874 404 l 1
 807 404 l 1
 807 577 l 1
 314 577 l 1
 314 70 l 1
 516 70 l 1
 516 0 l 1
 57 0 l 1
 57 70 l 1
 232 70 l 1
 232 1164 l 1
 57 1164 l 1
 57 1234 l 1
 1062 1234 l 1
 1062 858 l 1
 985 858 l 1
 985 1164 l 1
EndSplineSet
EndChar

StartChar: G
Encoding: 61 71 37
Width: 1319
VWidth: 0
GlyphClass: 1
Flags: HW
PickledData: "(dp1
S'com.typemytype.robofont.layerData'
p2
(dp3
s."
LayerCount: 2
Fore
SplineSet
929 523 m 1
 929 589 l 1
 1278 589 l 1
 1278 101 953 -23 689 -23 c 0
 391 -23 62 184 62 622 c 0
 62 982 331 1255 690 1255 c 0
 881 1255 1047 1186 1151 1051 c 1
 1151 1234 l 1
 1226 1234 l 1
 1226 898 l 1
 1164 898 l 1
 1094 1048 937 1182 702 1182 c 0
 351 1182 146 912 146 622 c 0
 146 326 324 48 702 48 c 0
 907 48 1187 158 1194 523 c 1
 929 523 l 1
EndSplineSet
EndChar

StartChar: H
Encoding: 62 72 42
Width: 1370
VWidth: 0
GlyphClass: 1
Flags: HW
PickledData: "(dp1
S'com.typemytype.robofont.layerData'
p2
(dp3
s."
LayerCount: 2
Fore
SplineSet
944 1234 m 1
 1313 1234 l 1
 1313 1171 l 1
 1173 1171 l 1
 1173 62 l 1
 1313 62 l 1
 1313 0 l 1
 944 0 l 1
 944 62 l 1
 1092 62 l 1
 1092 598 l 1
 290 598 l 1
 290 62 l 1
 445 62 l 1
 445 0 l 1
 57 0 l 1
 57 62 l 1
 209 62 l 1
 209 1171 l 1
 57 1171 l 1
 57 1234 l 1
 445 1234 l 1
 445 1171 l 1
 290 1171 l 1
 290 661 l 1
 1092 661 l 1
 1092 1171 l 1
 944 1171 l 1
 944 1234 l 1
EndSplineSet
EndChar

StartChar: Hbar
Encoding: 249 294 43
Width: 1350
VWidth: 0
GlyphClass: 1
Flags: HW
LayerCount: 2
Fore
SplineSet
933 1234 m 1
 1302 1234 l 1
 1302 1171 l 1
 1162 1171 l 1
 1162 952 l 1
 1266 952 l 1
 1266 889 l 1
 1162 889 l 1
 1162 62 l 1
 1302 62 l 1
 1302 0 l 1
 933 0 l 1
 933 62 l 1
 1081 62 l 1
 1081 598 l 1
 279 598 l 1
 279 62 l 1
 434 62 l 1
 434 0 l 1
 46 0 l 1
 46 62 l 1
 198 62 l 1
 198 889 l 1
 92 889 l 1
 92 952 l 1
 198 952 l 1
 198 1171 l 1
 46 1171 l 1
 46 1234 l 1
 434 1234 l 1
 434 1171 l 1
 279 1171 l 1
 279 952 l 1
 1081 952 l 1
 1081 1171 l 1
 933 1171 l 1
 933 1234 l 1
1081 889 m 1
 279 889 l 1
 279 661 l 1
 1081 661 l 1
 1081 889 l 1
EndSplineSet
EndChar

StartChar: I
Encoding: 63 73 45
Width: 453
VWidth: 0
GlyphClass: 1
Flags: HW
PickledData: "(dp1
S'com.typemytype.robofont.layerData'
p2
(dp3
s."
LayerCount: 2
Fore
SplineSet
25 1234 m 1
 428 1234 l 1
 428 1171 l 1
 268 1171 l 1
 268 62 l 1
 428 62 l 1
 428 0 l 1
 25 0 l 1
 25 62 l 1
 186 62 l 1
 186 1171 l 1
 25 1171 l 1
 25 1234 l 1
EndSplineSet
EndChar

StartChar: IJ
Encoding: 261 306 46
Width: 1073
VWidth: 0
GlyphClass: 1
Flags: HW
LayerCount: 2
Fore
SplineSet
793 59 m 2
 793 1174 l 1
 654 1174 l 1
 654 1234 l 1
 1014 1234 l 1
 1014 1174 l 1
 875 1174 l 1
 875 60 l 2
 875 -99 780 -101 711 -101 c 0
 709 -101 708 -101 706 -101 c 2
 635 -101 l 1
 635 -41 l 1
 719 -41 l 2
 721 -41 722 -41 724 -41 c 0
 753 -41 793 -38 793 59 c 2
102 1234 m 1
 505 1234 l 1
 505 1171 l 1
 345 1171 l 1
 345 62 l 1
 505 62 l 1
 505 0 l 1
 102 0 l 1
 102 62 l 1
 263 62 l 1
 263 1174 l 1
 102 1174 l 1
 102 1234 l 1
EndSplineSet
EndChar

StartChar: J
Encoding: 64 74 56
Width: 440
VWidth: 0
GlyphClass: 1
Flags: HW
PickledData: "(dp1
S'com.typemytype.robofont.layerData'
p2
(dp3
s."
LayerCount: 2
Fore
SplineSet
201 59 m 2
 201 1174 l 1
 62 1174 l 1
 62 1234 l 1
 422 1234 l 1
 422 1174 l 1
 283 1174 l 1
 283 60 l 2
 283 -99 188 -101 119 -101 c 0
 117 -101 116 -101 114 -101 c 2
 43 -101 l 1
 43 -41 l 1
 127 -41 l 2
 129 -41 130 -41 132 -41 c 0
 161 -41 201 -38 201 59 c 2
EndSplineSet
EndChar

StartChar: K
Encoding: 65 75 58
Width: 1202
VWidth: 0
GlyphClass: 1
Flags: HW
PickledData: "(dp1
S'com.typemytype.robofont.layerData'
p2
(dp3
s."
LayerCount: 2
Fore
SplineSet
57 1234 m 1
 461 1234 l 1
 461 1174 l 1
 300 1174 l 1
 300 642 l 1
 896 1174 l 1
 743 1174 l 1
 743 1234 l 1
 1175 1234 l 1
 1175 1174 l 1
 1002 1174 l 1
 402 634 l 1
 1062 60 l 1
 1210 60 l 1
 1210 0 l 1
 777 0 l 1
 777 60 l 1
 944 60 l 1
 300 625 l 1
 300 60 l 1
 461 60 l 1
 461 0 l 1
 57 0 l 1
 57 60 l 1
 218 60 l 1
 218 1174 l 1
 57 1174 l 1
 57 1234 l 1
EndSplineSet
EndChar

StartChar: L
Encoding: 66 76 60
Width: 978
VWidth: 0
GlyphClass: 1
Flags: HW
PickledData: "(dp1
S'com.typemytype.robofont.layerData'
p2
(dp3
s."
LayerCount: 2
Fore
SplineSet
57 1234 m 1
 417 1234 l 1
 417 1174 l 1
 278 1174 l 1
 278 70 l 1
 906 70 l 1
 906 412 l 1
 982 412 l 1
 982 0 l 1
 57 0 l 1
 57 70 l 1
 196 70 l 1
 196 1174 l 1
 57 1174 l 1
 57 1234 l 1
EndSplineSet
EndChar

StartChar: Lslash
Encoding: 276 321 65
Width: 1169
VWidth: 0
GlyphClass: 1
Flags: HW
LayerCount: 2
Fore
SplineSet
133 1234 m 1
 493 1234 l 1
 493 1174 l 1
 354 1174 l 1
 354 764 l 1
 562 887 l 1
 562 807 l 1
 354 684 l 1
 354 70 l 1
 982 70 l 1
 982 412 l 1
 1058 412 l 1
 1058 0 l 1
 133 0 l 1
 133 70 l 1
 272 70 l 1
 272 635 l 1
 140 557 l 1
 140 637 l 1
 272 715 l 1
 272 1174 l 1
 133 1174 l 1
 133 1234 l 1
EndSplineSet
EndChar

StartChar: M
Encoding: 67 77 66
Width: 1568
VWidth: 0
GlyphClass: 1
Flags: HW
PickledData: "(dp1
S'com.typemytype.robofont.layerData'
p2
(dp3
s."
LayerCount: 2
Fore
SplineSet
794 78 m 1
 297 1088 l 1
 297 62 l 1
 458 62 l 1
 458 0 l 1
 57 0 l 1
 57 62 l 1
 218 62 l 1
 218 1171 l 1
 57 1171 l 1
 57 1234 l 1
 313 1234 l 1
 794 239 l 1
 1255 1234 l 1
 1511 1234 l 1
 1511 1171 l 1
 1350 1171 l 1
 1350 62 l 1
 1511 62 l 1
 1511 0 l 1
 1110 0 l 1
 1110 62 l 1
 1271 62 l 1
 1271 1088 l 1
 794 78 l 1
EndSplineSet
EndChar

StartChar: N
Encoding: 68 78 67
Width: 1392
VWidth: 0
GlyphClass: 1
Flags: HW
PickledData: "(dp1
S'com.typemytype.robofont.layerData'
p2
(dp3
s."
LayerCount: 2
Fore
SplineSet
57 1234 m 1
 297 1234 l 1
 1141 125 l 1
 1141 1171 l 1
 980 1171 l 1
 980 1234 l 1
 1367 1234 l 1
 1367 1171 l 1
 1220 1171 l 1
 1220 0 l 1
 1141 0 l 1
 297 1114 l 1
 297 62 l 1
 458 62 l 1
 458 0 l 1
 57 0 l 1
 57 62 l 1
 218 62 l 1
 218 1171 l 1
 57 1171 l 1
 57 1234 l 1
EndSplineSet
EndChar

StartChar: O
Encoding: 69 79 73
Width: 1404
VWidth: 0
GlyphClass: 1
Flags: HW
PickledData: "(dp1
S'com.typemytype.robofont.layerData'
p2
(dp3
s."
LayerCount: 2
Fore
SplineSet
702 1182 m 0
 332 1182 146 896 146 614 c 0
 146 325 328 48 702 48 c 0
 1069 48 1258 332 1258 614 c 0
 1258 896 1068 1182 702 1182 c 0
702 -23 m 0
 275 -23 62 294 62 613 c 0
 62 934 277 1255 702 1255 c 0
 1127 1255 1342 934 1342 613 c 0
 1342 294 1129 -23 702 -23 c 0
EndSplineSet
EndChar

StartChar: OE
Encoding: 290 338 74
Width: 1937
VWidth: 0
GlyphClass: 1
Flags: HW
LayerCount: 2
Fore
SplineSet
1707 1164 m 1
 1068 1164 l 1
 1068 666 l 1
 1501 666 l 1
 1501 824 l 1
 1568 824 l 1
 1568 424 l 1
 1501 424 l 1
 1501 596 l 1
 1068 596 l 1
 1068 70 l 1
 1729 70 l 1
 1729 376 l 1
 1806 376 l 1
 1806 0 l 1
 716 0 l 2
 289 0 76 306 76 613 c 0
 76 922 291 1234 716 1234 c 2
 1784 1234 l 1
 1784 858 l 1
 1707 858 l 1
 1707 1164 l 1
986 70 m 1
 986 1158 l 1
 716 1158 l 2
 346 1158 160 884 160 614 c 0
 160 337 342 70 716 70 c 2
 986 70 l 1
EndSplineSet
EndChar

StartChar: Oslash
Encoding: 173 216 82
Width: 1440
VWidth: 0
GlyphClass: 1
Flags: HW
LayerCount: 2
Fore
SplineSet
722 -23 m 0
 579 -23 460 12 365 72 c 1
 276 -42 l 1
 228 -8 l 1
 317 105 l 1
 160 227 82 420 82 613 c 0
 82 934 297 1255 722 1255 c 0
 885 1255 1017 1208 1118 1131 c 1
 1204 1242 l 1
 1250 1210 l 1
 1160 1095 l 1
 1294 972 1362 792 1362 613 c 0
 1362 294 1149 -23 722 -23 c 0
722 1182 m 0
 352 1182 166 896 166 614 c 0
 166 441 231 272 363 165 c 1
 1069 1069 l 1
 980 1138 864 1182 722 1182 c 0
1278 614 m 0
 1278 767 1221 922 1111 1031 c 1
 411 131 l 1
 493 79 597 48 722 48 c 0
 1089 48 1278 332 1278 614 c 0
EndSplineSet
EndChar

StartChar: P
Encoding: 70 80 84
Width: 1117
VWidth: 0
GlyphClass: 1
Flags: HW
PickledData: "(dp1
S'com.typemytype.robofont.layerData'
p2
(dp3
s."
LayerCount: 2
Fore
SplineSet
70 0 m 1
 70 62 l 1
 223 62 l 1
 223 1171 l 1
 57 1171 l 1
 57 1234 l 1
 738 1234 l 2
 978 1234 1100 1058 1100 883 c 0
 1100 702 978 517 738 517 c 2
 304 517 l 1
 304 62 l 1
 474 62 l 1
 474 0 l 1
 70 0 l 1
304 1171 m 1
 304 582 l 1
 738 582 l 2
 925 582 1021 731 1021 880 c 0
 1021 1027 927 1171 738 1171 c 2
 304 1171 l 1
EndSplineSet
EndChar

StartChar: Q
Encoding: 71 81 85
Width: 1404
VWidth: 0
GlyphClass: 1
Flags: HW
PickledData: "(dp1
S'com.typemytype.robofont.layerData'
p2
(dp3
s."
LayerCount: 2
Fore
SplineSet
612 3 m 1
 767 -11 l 1
 859 -87 940 -135 1041 -135 c 0
 1080 -135 1121 -128 1168 -112 c 1
 1191 -177 l 1
 1133 -197 1082 -206 1033 -206 c 0
 887 -206 771 -123 612 3 c 1
EndSplineSet
Refer: 73 79 N 1 0 0 1 0 0 2
EndChar

StartChar: R
Encoding: 72 82 86
Width: 1177
VWidth: 0
GlyphClass: 1
Flags: HW
PickledData: "(dp1
S'com.typemytype.robofont.layerData'
p2
(dp3
s."
LayerCount: 2
Fore
SplineSet
70 0 m 1
 70 62 l 1
 223 62 l 1
 223 1171 l 1
 57 1171 l 1
 57 1234 l 1
 697 1234 l 2
 937 1234 1059 1070 1059 907 c 0
 1059 744 937 577 697 577 c 2
 696 577 l 1
 1012 62 l 1
 1186 62 l 1
 1186 0 l 1
 954 0 l 1
 612 577 l 1
 304 577 l 1
 304 62 l 1
 474 62 l 1
 474 0 l 1
 70 0 l 1
304 1171 m 1
 304 642 l 1
 697 642 l 2
 884 642 980 773 980 904 c 0
 980 1039 886 1171 697 1171 c 2
 304 1171 l 1
EndSplineSet
EndChar

StartChar: S
Encoding: 73 83 90
Width: 1036
VWidth: 0
GlyphClass: 1
Flags: HW
PickledData: "(dp1
S'com.typemytype.robofont.layerData'
p2
(dp3
s."
LayerCount: 2
Fore
SplineSet
567 -23 m 0
 418 -23 245 25 166 132 c 1
 166 0 l 1
 87 0 l 1
 87 416 l 1
 166 416 l 1
 166 266 l 2
 166 128 366 52 576 52 c 0
 776 52 895 182 895 322 c 0
 895 523 748 569 512 593 c 0
 242 621 84 681 84 925 c 0
 84 1142 272 1255 487 1255 c 0
 607 1255 773 1211 834 1123 c 1
 834 1234 l 1
 913 1234 l 1
 913 899 l 1
 834 899 l 1
 834 1008 l 2
 834 1097 656 1182 500 1182 c 0
 272 1182 175 1069 175 912 c 0
 175 715 320 689 535 667 c 0
 774 642 984 582 984 317 c 0
 984 184 882 -23 567 -23 c 0
EndSplineSet
EndChar

StartChar: T
Encoding: 74 84 94
Width: 1103
VWidth: 0
GlyphClass: 1
Flags: HW
PickledData: "(dp1
S'com.typemytype.robofont.layerData'
p2
(dp3
s."
LayerCount: 2
Fore
SplineSet
8 1234 m 1
 1095 1234 l 1
 1095 842 l 1
 1018 842 l 1
 1018 1164 l 1
 588 1164 l 1
 588 60 l 1
 764 60 l 1
 764 0 l 1
 332 0 l 1
 332 60 l 1
 507 60 l 1
 507 1164 l 1
 84 1164 l 1
 84 842 l 1
 8 842 l 1
 8 1234 l 1
EndSplineSet
EndChar

StartChar: Thorn
Encoding: 179 222 96
Width: 1130
VWidth: 0
GlyphClass: 1
Flags: HW
LayerCount: 2
Fore
SplineSet
338 1171 m 1
 338 1042 l 1
 736 1042 l 2
 965 1042 1074 893 1074 740 c 0
 1074 583 956 421 736 421 c 2
 338 421 l 1
 338 62 l 1
 508 62 l 1
 508 0 l 1
 104 0 l 1
 104 62 l 1
 257 62 l 1
 257 1171 l 1
 106 1171 l 1
 106 1234 l 1
 493 1234 l 1
 493 1171 l 1
 338 1171 l 1
338 979 m 1
 338 486 l 1
 736 486 l 2
 904 486 995 614 995 740 c 0
 995 862 912 979 736 979 c 2
 338 979 l 1
EndSplineSet
EndChar

StartChar: U
Encoding: 75 85 97
Width: 1406
VWidth: 0
GlyphClass: 1
Flags: HW
PickledData: "(dp1
S'com.typemytype.robofont.layerData'
p2
(dp3
s."
LayerCount: 2
Fore
SplineSet
1152 406 m 2
 1152 1171 l 1
 991 1171 l 1
 991 1234 l 1
 1394 1234 l 1
 1394 1171 l 1
 1234 1171 l 1
 1234 404 l 2
 1234 121 962 -23 692 -23 c 0
 432 -23 173 118 173 404 c 2
 173 1171 l 1
 12 1171 l 1
 12 1234 l 1
 415 1234 l 1
 415 1171 l 1
 254 1171 l 1
 254 406 l 2
 254 164 472 48 690 48 c 0
 920 48 1152 169 1152 406 c 2
EndSplineSet
EndChar

StartChar: V
Encoding: 76 86 108
Width: 1249
VWidth: 0
GlyphClass: 1
Flags: HW
PickledData: "(dp1
S'com.typemytype.robofont.layerData'
p2
(dp3
s."
LayerCount: 2
Fore
SplineSet
672 0 m 1
 586 0 l 1
 146 1171 l 1
 -3 1171 l 1
 -3 1234 l 1
 400 1234 l 1
 400 1171 l 1
 234 1171 l 1
 630 100 l 1
 1022 1171 l 1
 859 1171 l 1
 859 1234 l 1
 1252 1234 l 1
 1252 1171 l 1
 1116 1171 l 1
 672 0 l 1
EndSplineSet
EndChar

StartChar: W
Encoding: 77 87 109
Width: 1938
VWidth: 0
GlyphClass: 1
Flags: HW
PickledData: "(dp1
S'com.typemytype.robofont.layerData'
p2
(dp3
s."
LayerCount: 2
Fore
SplineSet
1401 0 m 1
 1314 0 l 1
 968 1044 l 1
 635 0 l 1
 546 0 l 1
 155 1171 l 1
 7 1171 l 1
 7 1234 l 1
 410 1234 l 1
 410 1171 l 1
 243 1171 l 1
 591 100 l 1
 923 1171 l 1
 770 1171 l 1
 770 1234 l 1
 1168 1234 l 1
 1168 1171 l 1
 1011 1171 l 1
 1359 100 l 1
 1691 1171 l 1
 1532 1171 l 1
 1532 1234 l 1
 1931 1234 l 1
 1931 1171 l 1
 1781 1171 l 1
 1401 0 l 1
EndSplineSet
EndChar

StartChar: X
Encoding: 78 88 110
Width: 1205
VWidth: 0
GlyphClass: 1
Flags: HW
PickledData: "(dp1
S'com.typemytype.robofont.layerData'
p2
(dp3
s."
LayerCount: 2
Fore
SplineSet
35 1234 m 1
 438 1234 l 1
 438 1171 l 1
 278 1171 l 1
 597 695 l 1
 915 1171 l 1
 755 1171 l 1
 755 1234 l 1
 1158 1234 l 1
 1158 1171 l 1
 1000 1171 l 1
 641 629 l 1
 1022 62 l 1
 1182 62 l 1
 1182 0 l 1
 779 0 l 1
 779 62 l 1
 940 62 l 1
 600 568 l 1
 266 62 l 1
 426 62 l 1
 426 0 l 1
 23 0 l 1
 23 62 l 1
 177 62 l 1
 556 634 l 1
 196 1171 l 1
 35 1171 l 1
 35 1234 l 1
EndSplineSet
EndChar

StartChar: Y
Encoding: 79 89 111
Width: 1273
VWidth: 0
GlyphClass: 1
Flags: HW
PickledData: "(dp1
S'com.typemytype.robofont.layerData'
p2
(dp3
s."
LayerCount: 2
Fore
SplineSet
156 1171 m 1
 -2 1171 l 1
 -2 1234 l 1
 401 1234 l 1
 401 1171 l 1
 244 1171 l 1
 641 508 l 1
 1031 1171 l 1
 872 1171 l 1
 872 1234 l 1
 1275 1234 l 1
 1275 1171 l 1
 1119 1171 l 1
 680 436 l 1
 680 62 l 1
 840 62 l 1
 840 0 l 1
 437 0 l 1
 437 62 l 1
 598 62 l 1
 598 436 l 1
 156 1171 l 1
EndSplineSet
EndChar

StartChar: Z
Encoding: 80 90 114
Width: 1146
VWidth: 0
GlyphClass: 1
Flags: HW
PickledData: "(dp1
S'com.typemytype.robofont.layerData'
p2
(dp3
s."
LayerCount: 2
Fore
SplineSet
1042 1153 m 1
 159 70 l 1
 1001 70 l 1
 1001 376 l 1
 1078 376 l 1
 1078 0 l 1
 76 0 l 1
 76 96 l 1
 953 1164 l 1
 172 1164 l 1
 172 870 l 1
 95 870 l 1
 95 1234 l 1
 1042 1234 l 1
 1042 1153 l 1
EndSplineSet
EndChar

StartChar: a
Encoding: 87 97 118
Width: 868
VWidth: 0
GlyphClass: 1
Flags: HW
PickledData: "(dp1
S'com.typemytype.robofont.layerData'
p2
(dp3
s."
LayerCount: 2
Fore
SplineSet
634 95 m 1
 536 22 446 -14 326 -14 c 0
 133 -14 40 101 40 232 c 0
 40 452 225 475 403 475 c 0
 480 475 553 462 634 446 c 1
 634 575 l 2
 634 736 543 787 396 787 c 0
 271 787 176 757 116 696 c 1
 80 755 l 1
 154 826 264 854 398 854 c 0
 658 854 714 701 714 593 c 2
 714 60 l 1
 845 60 l 1
 845 0 l 1
 650 0 l 1
 634 95 l 1
336 53 m 0
 450 53 549 80 634 158 c 1
 634 384 l 1
 634 384 501 410 399 410 c 0
 279 410 121 407 121 230 c 0
 121 148 174 53 336 53 c 0
EndSplineSet
EndChar

StartChar: acute
Encoding: 137 180 122
Width: 414
VWidth: 0
GlyphClass: 1
Flags: HW
LayerCount: 2
Fore
SplineSet
156 985 m 1
 125 985 l 1
 184 1234 l 1
 310 1234 l 1
 156 985 l 1
EndSplineSet
EndChar

StartChar: ae
Encoding: 187 230 124
Width: 1499
VWidth: 0
GlyphClass: 1
Flags: HW
LayerCount: 2
Fore
SplineSet
366 -14 m 0
 173 -14 80 101 80 232 c 0
 80 452 265 475 443 475 c 0
 520 475 599 462 680 446 c 1
 674 575 l 1
 674 736 583 787 436 787 c 0
 311 787 216 757 156 696 c 1
 120 755 l 1
 194 826 304 854 438 854 c 0
 643 854 721 746 744 641 c 1
 811 766 929 854 1097 854 c 0
 1316 854 1447 648 1447 400 c 1
 756 400 l 1
 756 164 851 52 1081 52 c 0
 1203 52 1325 105 1415 204 c 1
 1448 149 l 1
 1331 35 1200 -14 1078 -14 c 0
 947 -14 840 25 761 116 c 1
 634 0 485 -14 366 -14 c 0
758 466 m 1
 1369 466 l 1
 1356 632 1262 787 1097 787 c 0
 880 787 767 623 758 466 c 1
731 164 m 1
 701 224 680 326 680 384 c 1
 680 384 553 410 451 410 c 0
 447 410 443 410 439 410 c 0
 318 410 161 407 161 230 c 0
 161 148 214 53 376 53 c 0
 502 53 592 56 731 164 c 1
EndSplineSet
EndChar

StartChar: ampersand
Encoding: 28 38 127
Width: 1074
VWidth: 0
GlyphClass: 1
Flags: HW
LayerCount: 2
Fore
SplineSet
911 68 m 1
 1071 68 l 1
 1071 0 l 1
 877 0 l 1
 775 113 l 1
 670 -5 547 -23 429 -23 c 0
 210 -23 35 131 35 323 c 0
 35 505 103 626 336 702 c 1
 219 863 l 2
 185 910 169 961 169 1011 c 0
 169 1138 274 1255 448 1255 c 0
 623 1255 732 1154 732 1024 c 0
 732 884 668 770 438 676 c 1
 787 229 l 1
 802 252 875 328 875 511 c 1
 1071 511 l 1
 1071 446 l 1
 931 446 l 1
 931 324 843 193 827 171 c 1
 911 68 l 1
736 170 m 1
 373 646 l 1
 162 584 108 467 108 335 c 0
 108 187 238 48 437 48 c 0
 548 48 642 62 736 170 c 1
286 889 m 2
 403 728 l 1
 612 809 657 891 657 1022 c 0
 657 1130 564 1183 451 1183 c 0
 335 1183 242 1108 242 1009 c 0
 242 967 255 931 286 889 c 2
EndSplineSet
EndChar

StartChar: approxequal
Encoding: 408 8776 129
Width: 811
VWidth: 0
GlyphClass: 1
Flags: HW
LayerCount: 2
Fore
SplineSet
169 445 m 1
 131 445 l 1
 141 535 192 574 255 574 c 0
 370 574 468 527 556 527 c 0
 593 527 621 542 630 570 c 1
 667 570 l 1
 658 488 615 439 543 439 c 0
 415 439 319 486 228 486 c 0
 192 486 177 472 169 445 c 1
180 644 m 1
 142 644 l 1
 151 734 203 773 265 773 c 0
 381 773 479 726 567 726 c 0
 604 726 631 742 641 769 c 1
 678 769 l 1
 669 688 625 638 553 638 c 0
 426 638 330 685 239 685 c 0
 203 685 187 671 180 644 c 1
EndSplineSet
EndChar

StartChar: asciicircum
Encoding: 84 94 131
Width: 891
VWidth: 0
GlyphClass: 1
Flags: HW
LayerCount: 2
Fore
SplineSet
492 1255 m 1
 822 761 l 1
 750 761 l 1
 449 1186 l 1
 135 761 l 1
 61 761 l 1
 407 1255 l 1
 492 1255 l 1
EndSplineSet
EndChar

StartChar: asciitilde
Encoding: 116 126 132
Width: 788
VWidth: 0
GlyphClass: 1
Flags: HW
LayerCount: 2
Fore
SplineSet
163 1028 m 1
 125 1028 l 1
 135 1118 186 1157 249 1157 c 0
 364 1157 462 1110 550 1110 c 0
 587 1110 615 1126 624 1153 c 1
 661 1153 l 1
 652 1072 609 1022 537 1022 c 0
 409 1022 313 1069 222 1069 c 0
 186 1069 171 1055 163 1028 c 1
EndSplineSet
EndChar

StartChar: asterisk
Encoding: 32 42 133
Width: 934
VWidth: 0
GlyphClass: 1
Flags: HW
LayerCount: 2
Fore
SplineSet
416 1229 m 1
 517 1229 l 1
 485 818 l 1
 859 992 l 1
 890 906 l 1
 494 785 l 1
 763 472 l 1
 687 415 l 1
 467 761 l 1
 246 415 l 1
 170 472 l 1
 439 785 l 1
 43 906 l 1
 74 992 l 1
 449 818 l 1
 416 1229 l 1
EndSplineSet
EndChar

StartChar: at
Encoding: 54 64 134
Width: 1458
VWidth: 0
GlyphClass: 1
Flags: HW
LayerCount: 2
Fore
SplineSet
964 840 m 1
 988 962 l 1
 1075 962 l 1
 953 402 l 2
 952 396 951 390 951 384 c 0
 951 349 976 325 1007 325 c 0
 1083 325 1278 466 1278 732 c 0
 1278 971 1096 1194 769 1194 c 0
 420 1194 172 937 172 586 c 0
 172 248 391 26 783 26 c 0
 946 26 1072 61 1174 133 c 1
 1211 83 l 1
 1101 1 971 -43 783 -43 c 0
 305 -43 84 265 84 588 c 0
 84 920 328 1265 773 1265 c 0
 1189 1265 1357 998 1357 732 c 0
 1357 486 1168 252 983 252 c 0
 941 252 888 287 888 383 c 0
 888 396 888 409 891 424 c 1
 808 299 717 252 629 252 c 0
 505 252 377 358 377 560 c 0
 377 761 492 983 736 983 c 0
 819 983 913 944 964 840 c 1
921 701 m 0
 921 829 841 913 724 913 c 0
 559 913 471 721 471 559 c 0
 471 430 534 318 664 318 c 0
 805 318 921 520 921 701 c 0
EndSplineSet
EndChar

StartChar: b
Encoding: 88 98 136
Width: 1090
VWidth: 0
GlyphClass: 1
Flags: HW
PickledData: "(dp1
S'com.typemytype.robofont.layerData'
p2
(dp3
s."
LayerCount: 2
Fore
SplineSet
31 1234 m 1
 259 1234 l 1
 259 695 l 1
 334 784 447 854 597 854 c 0
 883 854 1036 644 1036 434 c 0
 1036 240 919 -14 600 -14 c 0
 435 -14 306 73 259 125 c 1
 254 82 250 41 246 0 c 1
 15 0 l 1
 15 60 l 1
 180 60 l 1
 180 1174 l 1
 31 1174 l 1
 31 1234 l 1
957 426 m 0
 957 624 821 787 601 787 c 0
 474 787 393 756 259 619 c 1
 259 193 l 1
 404 82 481 53 603 53 c 0
 843 53 957 245 957 426 c 0
EndSplineSet
EndChar

StartChar: backslash
Encoding: 82 92 137
Width: 535
VWidth: 0
GlyphClass: 1
Flags: HW
LayerCount: 2
Fore
SplineSet
124 1255 m 1
 496 -23 l 1
 420 -23 l 1
 53 1255 l 1
 124 1255 l 1
EndSplineSet
EndChar

StartChar: bar
Encoding: 114 124 138
Width: 426
VWidth: 0
GlyphClass: 1
Flags: HW
LayerCount: 2
Fore
SplineSet
178 -23 m 1
 178 1255 l 1
 246 1255 l 1
 246 -23 l 1
 178 -23 l 1
EndSplineSet
EndChar

StartChar: braceleft
Encoding: 113 123 139
Width: 555
VWidth: 0
GlyphClass: 1
Flags: HW
LayerCount: 2
Fore
SplineSet
68 574 m 1
 68 658 l 1
 216 658 216 719 216 908 c 0
 216 919 216 931 216 942 c 0
 216 1126 221 1255 410 1255 c 2
 475 1255 l 1
 475 1201 l 1
 334 1201 301 1175 301 1004 c 0
 301 756 288 623 164 616 c 1
 288 608 301 476 301 228 c 0
 301 58 334 31 475 31 c 1
 475 -23 l 1
 410 -23 l 2
 221 -23 216 106 216 290 c 0
 216 310 216 329 216 347 c 0
 216 519 209 574 68 574 c 1
EndSplineSet
EndChar

StartChar: braceright
Encoding: 115 125 140
Width: 557
VWidth: 0
GlyphClass: 1
Flags: HW
LayerCount: 2
Fore
SplineSet
493 658 m 1
 493 574 l 1
 346 574 346 514 346 324 c 0
 346 313 346 301 346 290 c 0
 346 106 341 -23 151 -23 c 2
 86 -23 l 1
 86 31 l 1
 228 31 260 58 260 228 c 0
 260 476 274 608 397 616 c 1
 274 623 260 756 260 1004 c 0
 260 1175 228 1201 86 1201 c 1
 86 1255 l 1
 151 1255 l 2
 341 1255 346 1126 346 941 c 0
 346 921 346 902 346 884 c 0
 346 713 353 658 493 658 c 1
EndSplineSet
EndChar

StartChar: bracketleft
Encoding: 81 91 141
Width: 518
VWidth: 0
GlyphClass: 1
Flags: HW
LayerCount: 2
Fore
SplineSet
178 1255 m 1
 420 1255 l 1
 420 1193 l 1
 260 1193 l 1
 260 40 l 1
 420 40 l 1
 420 -23 l 1
 178 -23 l 1
 178 1255 l 1
EndSplineSet
EndChar

StartChar: bracketright
Encoding: 83 93 142
Width: 522
VWidth: 0
GlyphClass: 1
Flags: HW
LayerCount: 2
Fore
SplineSet
100 1255 m 1
 342 1255 l 1
 342 -23 l 1
 100 -23 l 1
 100 40 l 1
 261 40 l 1
 261 1193 l 1
 100 1193 l 1
 100 1255 l 1
EndSplineSet
EndChar

StartChar: breve
Encoding: 370 728 143
Width: 586
VWidth: 0
GlyphClass: 1
Flags: HW
LayerCount: 2
Fore
SplineSet
131 1248 m 1
 182 1248 l 1
 188 1174 242 1136 296 1136 c 0
 350 1136 403 1172 414 1248 c 1
 457 1248 l 1
 446 1136 372 1080 296 1080 c 0
 221 1080 145 1136 131 1248 c 1
EndSplineSet
EndChar

StartChar: brokenbar
Encoding: 123 166 144
Width: 414
VWidth: 0
GlyphClass: 1
Flags: HW
LayerCount: 2
Fore
SplineSet
172 715 m 1
 172 1255 l 1
 240 1255 l 1
 240 715 l 1
 172 715 l 1
172 -23 m 1
 172 517 l 1
 240 517 l 1
 172 -23 l 1
EndSplineSet
EndChar

StartChar: bullet
Encoding: 392 8226 145
Width: 739
VWidth: 0
GlyphClass: 1
Flags: HW
LayerCount: 2
Fore
SplineSet
369 905 m 0
 502 905 610 804 610 674 c 0
 610 546 502 442 369 442 c 0
 235 442 129 546 129 674 c 0
 129 804 235 905 369 905 c 0
EndSplineSet
EndChar

StartChar: c
Encoding: 89 99 146
Width: 925
VWidth: 0
GlyphClass: 1
Flags: HW
PickledData: "(dp1
S'com.typemytype.robofont.layerData'
p2
(dp3
s."
LayerCount: 2
Fore
SplineSet
490 -14 m 1
 261 -11 51 157 51 416 c 0
 51 668 219 850 494 854 c 1
 625 854 723 803 756 750 c 1
 756 860 l 1
 832 860 l 1
 832 600 l 1
 766 600 l 1
 757 690 692 787 494 787 c 0
 307 787 133 662 133 413 c 0
 133 191 306 58 494 54 c 1
 621 54 752 110 838 222 c 1
 861 149 l 1
 747 35 613 -14 490 -14 c 1
EndSplineSet
EndChar

StartChar: caron
Encoding: 369 711 148
Width: 598
VWidth: 0
GlyphClass: 1
Flags: HW
LayerCount: 2
Fore
SplineSet
109 1195 m 1
 191 1195 l 1
 296 971 l 1
 400 1195 l 1
 489 1195 l 1
 343 922 l 1
 248 922 l 1
 109 1195 l 1
EndSplineSet
EndChar

StartChar: cedilla
Encoding: 141 184 153
Width: 430
VWidth: 0
GlyphClass: 1
Flags: HW
LayerCount: 2
Fore
SplineSet
100 -256 m 1
 100 -210 l 1
 113 -214 152 -224 183 -224 c 0
 209 -224 232 -217 232 -192 c 0
 232 -166 189 -149 131 -144 c 1
 189 6 l 1
 239 6 l 1
 200 -108 l 1
 212 -108 l 2
 293 -108 336 -152 336 -197 c 0
 336 -236 299 -276 220 -276 c 0
 174 -276 128 -266 100 -256 c 1
EndSplineSet
EndChar

StartChar: cent
Encoding: 119 162 154
Width: 950
VWidth: 0
GlyphClass: 1
Flags: HW
LayerCount: 2
Fore
SplineSet
494 -14 m 1
 459 -13 425 -9 392 -1 c 1
 331 -214 l 1
 268 -214 l 1
 335 15 l 1
 176 75 55 219 55 416 c 0
 55 668 223 850 498 854 c 0
 526 854 552 851 577 847 c 1
 640 1064 l 1
 698 1064 l 1
 632 834 l 1
 694 815 739 783 760 750 c 1
 760 860 l 1
 836 860 l 1
 836 600 l 1
 770 600 l 1
 763 669 723 743 614 773 c 1
 411 65 l 1
 439 58 468 54 498 54 c 0
 625 54 756 110 842 222 c 1
 865 149 l 1
 751 35 617 -14 494 -14 c 1
137 413 m 0
 137 249 230 134 355 83 c 1
 558 783 l 1
 540 785 520 787 498 787 c 0
 311 787 137 662 137 413 c 0
EndSplineSet
EndChar

StartChar: circumflex
Encoding: 368 710 155
Width: 598
VWidth: 0
GlyphClass: 1
Flags: HW
LayerCount: 2
Fore
SplineSet
188 922 m 1
 106 922 l 1
 245 1195 l 1
 340 1195 l 1
 486 922 l 1
 397 922 l 1
 293 1146 l 1
 188 922 l 1
EndSplineSet
EndChar

StartChar: colon
Encoding: 48 58 156
Width: 416
VWidth: 0
GlyphClass: 1
Flags: HW
LayerCount: 2
Fore
SplineSet
150 815 m 1
 267 815 l 1
 267 695 l 1
 150 695 l 1
 150 815 l 1
150 314 m 1
 267 314 l 1
 267 194 l 1
 150 194 l 1
 150 314 l 1
EndSplineSet
EndChar

StartChar: comma
Encoding: 34 44 157
Width: 412
VWidth: 0
GlyphClass: 1
Flags: HW
LayerCount: 2
Fore
SplineSet
148 116 m 1
 274 116 l 1
 274 -6 l 2
 274 -104 240 -180 139 -180 c 1
 139 -136 l 1
 205 -114 210 -88 210 -4 c 1
 148 -4 l 1
 148 116 l 1
EndSplineSet
EndChar

StartChar: commaaccent
Encoding: 420 -1 158
Width: 399
VWidth: 0
GlyphClass: 1
Flags: HW
LayerCount: 2
Fore
SplineSet
140 1237 m 1
 266 1237 l 1
 266 1115 l 2
 266 1016 232 941 131 941 c 1
 131 985 l 1
 197 1007 202 1033 202 1117 c 1
 140 1117 l 1
 140 1237 l 1
EndSplineSet
EndChar

StartChar: copyright
Encoding: 126 169 159
Width: 1458
VWidth: 0
GlyphClass: 1
Flags: HW
LayerCount: 2
Fore
SplineSet
727 241 m 1
 533 244 357 385 357 602 c 0
 357 815 499 967 730 972 c 1
 837 972 915 937 945 895 c 1
 945 977 l 1
 1016 977 l 1
 1016 754 l 1
 955 754 l 1
 946 828 893 910 730 910 c 0
 577 910 433 805 433 600 c 0
 433 419 575 305 730 305 c 0
 835 305 946 353 1018 448 c 1
 1040 379 l 1
 944 282 830 241 727 241 c 1
728 1199 m 0
 349 1199 158 904 158 617 c 0
 158 318 344 34 728 34 c 0
 1105 34 1299 328 1299 617 c 0
 1299 904 1103 1199 728 1199 c 0
728 -23 m 0
 301 -23 86 296 86 616 c 0
 86 937 303 1258 728 1258 c 0
 1155 1258 1370 937 1370 616 c 0
 1370 296 1157 -23 728 -23 c 0
EndSplineSet
EndChar

StartChar: currency
Encoding: 121 164 160
Width: 1073
VWidth: 0
GlyphClass: 1
Flags: HW
LayerCount: 2
Fore
SplineSet
242 982 m 0
 242 772 397 662 552 662 c 0
 709 662 867 768 867 982 c 0
 867 1196 709 1302 552 1302 c 0
 397 1302 242 1192 242 982 c 0
268 712 m 1
 202 785 169 881 169 978 c 0
 169 1075 202 1174 268 1252 c 1
 166 1353 l 1
 223 1402 l 1
 320 1299 l 1
 398 1345 474 1368 550 1368 c 0
 630 1368 710 1344 796 1297 c 1
 893 1403 l 1
 945 1353 l 1
 840 1250 l 1
 902 1168 933 1076 933 984 c 0
 933 892 902 800 840 714 c 1
 945 611 l 1
 893 561 l 1
 796 667 l 1
 715 620 635 596 554 596 c 0
 477 596 399 618 320 665 c 1
 223 562 l 1
 166 611 l 1
 268 712 l 1
EndSplineSet
EndChar

StartChar: d
Encoding: 90 100 161
Width: 1068
VWidth: 0
GlyphClass: 1
Flags: HW
PickledData: "(dp1
S'com.typemytype.robofont.layerData'
p2
(dp3
s."
LayerCount: 2
Fore
SplineSet
627 1234 m 1
 910 1234 l 1
 910 60 l 1
 1054 60 l 1
 1054 0 l 1
 844 0 l 1
 831 125 l 1
 784 73 652 -14 487 -14 c 0
 168 -14 51 240 51 434 c 0
 51 644 204 854 490 854 c 0
 640 854 756 784 831 695 c 1
 831 1174 l 1
 627 1174 l 1
 627 1234 l 1
130 426 m 0
 130 245 244 53 484 53 c 0
 606 53 686 82 831 193 c 1
 831 619 l 1
 697 756 613 787 486 787 c 0
 266 787 130 624 130 426 c 0
EndSplineSet
EndChar

StartChar: dagger
Encoding: 390 8224 162
Width: 580
VWidth: 0
GlyphClass: 1
Flags: HW
LayerCount: 2
Fore
SplineSet
536 862 m 1
 309 887 l 1
 329 782 335 686 335 593 c 0
 335 406 309 227 309 2 c 1
 269 2 l 1
 269 229 243 404 243 590 c 0
 243 684 249 780 269 887 c 1
 39 862 l 1
 39 941 l 1
 269 923 l 1
 236 1210 l 1
 342 1210 l 1
 309 923 l 1
 536 941 l 1
 536 862 l 1
EndSplineSet
EndChar

StartChar: daggerdbl
Encoding: 391 8225 163
Width: 639
VWidth: 0
GlyphClass: 1
Flags: HW
LayerCount: 2
Fore
SplineSet
302 887 m 1
 72 862 l 1
 72 941 l 1
 302 923 l 1
 269 1210 l 1
 375 1210 l 1
 342 923 l 1
 569 941 l 1
 569 862 l 1
 342 887 l 1
 351 834 356 709 356 587 c 0
 356 467 351 349 342 299 c 1
 569 324 l 1
 569 245 l 1
 342 263 l 1
 375 -24 l 1
 269 -24 l 1
 302 263 l 1
 72 245 l 1
 72 324 l 1
 302 299 l 1
 292 350 288 472 288 593 c 0
 288 714 292 835 302 887 c 1
EndSplineSet
EndChar

StartChar: dcroat
Encoding: 230 273 165
Width: 1104
VWidth: 0
GlyphClass: 1
Flags: HW
LayerCount: 2
Fore
SplineSet
118 426 m 0
 118 245 232 53 472 53 c 0
 594 53 692 82 837 193 c 1
 837 619 l 1
 703 756 601 787 474 787 c 0
 254 787 118 624 118 426 c 0
633 1234 m 1
 916 1234 l 1
 916 1042 l 1
 1078 1042 l 1
 1078 979 l 1
 916 979 l 1
 916 60 l 1
 1081 60 l 1
 1081 0 l 1
 850 0 l 1
 837 125 l 1
 790 73 640 -14 475 -14 c 0
 156 -14 39 240 39 434 c 0
 39 644 192 854 478 854 c 0
 628 854 762 784 837 695 c 1
 837 979 l 1
 518 979 l 1
 518 1042 l 1
 837 1042 l 1
 837 1174 l 1
 633 1174 l 1
 633 1234 l 1
EndSplineSet
EndChar

StartChar: degree
Encoding: 133 176 166
Width: 813
VWidth: 0
GlyphClass: 1
Flags: HW
LayerCount: 2
Fore
SplineSet
413 1239 m 0
 299 1239 217 1166 217 1052 c 0
 217 938 299 865 413 865 c 0
 527 865 609 938 609 1052 c 0
 609 1166 527 1239 413 1239 c 0
413 768 m 0
 264 768 106 863 106 1052 c 0
 106 1241 264 1336 413 1336 c 0
 562 1336 720 1241 720 1052 c 0
 720 863 562 768 413 768 c 0
EndSplineSet
EndChar

StartChar: dieresis
Encoding: 125 168 167
Width: 608
VWidth: 0
GlyphClass: 1
Flags: HW
LayerCount: 2
Fore
SplineSet
373 1046 m 1
 473 1046 l 1
 473 940 l 1
 373 940 l 1
 373 1046 l 1
131 1046 m 1
 231 1046 l 1
 231 940 l 1
 131 940 l 1
 131 1046 l 1
EndSplineSet
EndChar

StartChar: divide
Encoding: 204 247 168
Width: 522
VWidth: 0
GlyphClass: 1
Flags: HW
LayerCount: 2
Fore
SplineSet
529 413 m 1
 0 413 l 1
 0 475 l 1
 529 475 l 1
 529 413 l 1
208 276 m 1
 324 276 l 1
 324 156 l 1
 208 156 l 1
 208 276 l 1
208 725 m 1
 324 725 l 1
 324 605 l 1
 208 605 l 1
 208 725 l 1
EndSplineSet
EndChar

StartChar: dollar
Encoding: 26 36 169
Width: 1151
VWidth: 0
GlyphClass: 1
Flags: HW
LayerCount: 2
Fore
SplineSet
704 -23 m 2
 701 -23 l 1
 701 -190 l 1
 641 -190 l 1
 641 -20 l 1
 517 -7 405 41 303 112 c 1
 303 0 l 1
 224 0 l 1
 224 416 l 1
 303 416 l 1
 303 196 l 1
 411 116 515 71 641 57 c 1
 641 594 l 1
 376 621 215 684 215 925 c 0
 215 1142 409 1255 624 1255 c 2
 641 1255 l 1
 641 1421 l 1
 701 1421 l 1
 701 1250 l 1
 793 1240 882 1210 971 1163 c 1
 971 1234 l 1
 1050 1234 l 1
 1050 899 l 1
 971 899 l 1
 971 1080 l 1
 917 1116 824 1165 701 1178 c 1
 701 663 l 1
 927 636 1121 571 1121 317 c 0
 1121 184 1019 -23 704 -23 c 2
1032 322 m 0
 1032 508 906 560 701 587 c 1
 701 53 l 1
 711 52 722 52 733 52 c 0
 921 52 1032 182 1032 322 c 0
306 912 m 0
 306 724 442 691 641 670 c 1
 641 1182 l 1
 637 1182 l 2
 409 1182 306 1069 306 912 c 0
EndSplineSet
EndChar

StartChar: dotaccent
Encoding: 371 729 170
Width: 397
VWidth: 0
GlyphClass: 1
Flags: HW
LayerCount: 2
Fore
SplineSet
141 1184 m 1
 257 1184 l 1
 257 1064 l 1
 141 1064 l 1
 141 1184 l 1
EndSplineSet
EndChar

StartChar: uni0307
Encoding: 376 775 171
Width: 397
VWidth: 0
GlyphClass: 1
Flags: HW
LayerCount: 2
Fore
SplineSet
141 1184 m 1
 257 1184 l 1
 257 1064 l 1
 141 1064 l 1
 141 1184 l 1
EndSplineSet
EndChar

StartChar: dotlessi
Encoding: 260 305 172
Width: 569
VWidth: 0
GlyphClass: 1
Flags: HW
LayerCount: 2
Fore
SplineSet
256 776 m 1
 106 776 l 1
 106 836 l 1
 335 836 l 1
 335 60 l 1
 489 60 l 1
 489 0 l 1
 106 0 l 1
 106 60 l 1
 256 60 l 1
 256 776 l 1
EndSplineSet
EndChar

StartChar: e
Encoding: 91 101 173
Width: 945
VWidth: 0
GlyphClass: 1
Flags: HW
PickledData: "(dp1
S'com.typemytype.robofont.layerData'
p2
(dp3
s."
LayerCount: 2
Fore
SplineSet
133 400 m 5
 149 169 307 52 482 52 c 4
 608 52 735 106 828 204 c 5
 861 149 l 5
 740 35 605 -14 479 -14 c 4
 243 -14 51 169 51 420 c 4
 51 637 200 854 498 854 c 4
 739 854 884 648 884 400 c 5
 133 400 l 5
135 466 m 5
 806 466 l 5
 791 632 685 787 498 787 c 4
 266 787 144 623 135 466 c 5
EndSplineSet
EndChar

StartChar: eight
Encoding: 46 56 180
Width: 901
VWidth: 0
GlyphClass: 1
Flags: HW
LayerCount: 2
Fore
SplineSet
862 318 m 0
 862 85 655 -24 450 -24 c 0
 243 -24 39 86 39 318 c 0
 39 476 145 611 308 644 c 1
 150 692 80 817 80 938 c 0
 80 1097 210 1255 451 1255 c 0
 692 1255 822 1097 822 938 c 0
 822 817 741 683 594 644 c 1
 757 611 862 476 862 318 c 0
451 596 m 1
 235 595 123 458 123 322 c 0
 123 139 288 49 450 49 c 0
 615 49 778 142 778 322 c 0
 778 458 667 595 451 596 c 1
451 1182 m 0
 260 1182 165 1062 165 937 c 0
 165 811 261 679 451 679 c 0
 640 679 736 811 736 937 c 0
 736 1062 642 1182 451 1182 c 0
EndSplineSet
EndChar

StartChar: ellipsis
Encoding: 393 8230 181
Width: 926
VWidth: 0
GlyphClass: 1
Flags: HW
LayerCount: 2
Fore
SplineSet
147 120 m 1
 263 120 l 1
 263 0 l 1
 147 0 l 1
 147 120 l 1
407 120 m 1
 524 120 l 1
 524 0 l 1
 407 0 l 1
 407 120 l 1
668 120 m 1
 784 120 l 1
 784 0 l 1
 668 0 l 1
 668 120 l 1
EndSplineSet
EndChar

StartChar: emdash
Encoding: 383 8212 183
Width: 1358
VWidth: 0
GlyphClass: 1
Flags: HW
LayerCount: 2
Fore
SplineSet
143 60 m 1
 1220 60 l 1
 1220 0 l 1
 143 0 l 1
 143 60 l 1
EndSplineSet
EndChar

StartChar: endash
Encoding: 382 8211 184
Width: 995
VWidth: 0
GlyphClass: 1
Flags: HW
LayerCount: 2
Fore
SplineSet
143 60 m 1
 859 60 l 1
 859 0 l 1
 143 0 l 1
 143 60 l 1
EndSplineSet
EndChar

StartChar: equal
Encoding: 51 61 186
Width: 791
VWidth: 0
GlyphClass: 1
Flags: HW
LayerCount: 2
Fore
SplineSet
652 696 m 1
 652 634 l 1
 143 634 l 1
 143 696 l 1
 652 696 l 1
652 419 m 1
 652 356 l 1
 143 356 l 1
 143 419 l 1
 652 419 l 1
EndSplineSet
EndChar

StartChar: eth
Encoding: 197 240 187
Width: 920
VWidth: 0
GlyphClass: 1
Flags: HW
LayerCount: 2
Fore
SplineSet
114 1301 m 1
 159 1351 l 1
 244 1283 320 1226 385 1163 c 1
 664 1270 l 1
 693 1220 l 1
 430 1118 l 1
 780 786 839 523 839 391 c 0
 839 129 662 -23 452 -23 c 0
 191 -23 53 193 53 421 c 0
 53 632 230 796 436 796 c 0
 515 796 619 760 691 690 c 1
 622 825 515 959 369 1088 c 1
 103 987 l 1
 75 1040 l 1
 323 1132 l 1
 261 1191 183 1247 114 1301 c 1
135 404 m 0
 135 227 239 49 452 49 c 0
 662 49 762 219 762 394 c 0
 762 617 604 728 447 728 c 0
 291 728 135 620 135 404 c 0
EndSplineSet
EndChar

StartChar: exclam
Encoding: 23 33 188
Width: 432
VWidth: 0
GlyphClass: 1
Flags: HW
LayerCount: 2
Fore
SplineSet
231 344 m 1
 200 344 l 1
 171 809 l 1
 171 1171 l 1
 260 1171 l 1
 260 809 l 1
 231 344 l 1
164 0 m 1
 164 106 l 1
 267 106 l 1
 267 0 l 1
 164 0 l 1
EndSplineSet
EndChar

StartChar: exclamdown
Encoding: 118 161 189
Width: 430
VWidth: 0
GlyphClass: 1
Flags: HW
LayerCount: 2
Fore
SplineSet
164 1066 m 1
 164 1171 l 1
 269 1171 l 1
 269 1066 l 1
 164 1066 l 1
200 827 m 1
 231 827 l 1
 260 362 l 1
 260 0 l 1
 164 0 l 1
 164 362 l 1
 200 827 l 1
EndSplineSet
EndChar

StartChar: f
Encoding: 92 102 190
Width: 528
VWidth: 0
GlyphClass: 1
Flags: HW
PickledData: "(dp1
S'com.typemytype.robofont.layerData'
p2
(dp3
s."
LayerCount: 2
Fore
SplineSet
14 0 m 1
 14 60 l 1
 169 60 l 1
 169 779 l 1
 14 779 l 1
 14 836 l 1
 169 836 l 1
 169 1049 l 2
 169 1170 262 1234 353 1234 c 0
 440 1234 527 1180 530 1066 c 1
 455 1066 l 1
 455 1138 406 1172 356 1172 c 0
 303 1172 248 1129 248 1051 c 2
 248 836 l 1
 474 836 l 1
 474 779 l 1
 248 779 l 1
 248 60 l 1
 439 60 l 1
 439 0 l 1
 14 0 l 1
EndSplineSet
EndChar

StartChar: fi
Encoding: 413 64257 191
Width: 1054
VWidth: 0
GlyphClass: 1
Flags: HW
LayerCount: 2
Fore
SplineSet
822 776 m 1
 338 776 l 1
 338 60 l 1
 529 60 l 1
 529 0 l 1
 104 0 l 1
 104 60 l 1
 259 60 l 1
 259 776 l 1
 104 776 l 1
 104 836 l 1
 259 836 l 1
 259 970 l 2
 259 1145 457 1248 636 1248 c 0
 765 1248 921 1199 921 1090 c 0
 921 1056 896 1025 859 1025 c 0
 817 1025 792 1054 792 1081 c 0
 792 1100 802 1120 820 1130 c 1
 775 1168 708 1186 638 1186 c 0
 495 1186 338 1109 338 972 c 2
 338 836 l 1
 901 836 l 1
 901 60 l 1
 1054 60 l 1
 1054 0 l 1
 672 0 l 1
 672 60 l 1
 822 60 l 1
 822 776 l 1
EndSplineSet
Ligature2: "'liga' Standard Ligatures in Latin lookup 0-1" f i
EndChar

StartChar: five
Encoding: 43 53 192
Width: 924
VWidth: 0
GlyphClass: 1
Flags: HW
LayerCount: 2
Fore
SplineSet
84 217 m 1
 164 95 318 53 457 53 c 0
 674 53 833 152 833 384 c 0
 833 565 726 727 532 727 c 0
 412 727 286 716 178 660 c 1
 126 685 l 1
 126 1234 l 1
 773 1234 l 1
 773 1164 l 1
 205 1164 l 1
 196 748 l 1
 286 788 422 796 521 796 c 0
 766 796 917 619 917 380 c 0
 917 113 707 -18 458 -18 c 0
 301 -18 134 31 37 163 c 1
 84 217 l 1
EndSplineSet
EndChar

StartChar: fj
Encoding: 423 0 193
Width: 919
VWidth: 0
GlyphClass: 1
Flags: HW
LayerCount: 2
Fore
SplineSet
1 0 m 1
 1 60 l 1
 156 60 l 1
 156 779 l 1
 1 779 l 1
 1 836 l 1
 156 836 l 1
 156 1064 l 2
 156 1174 240 1234 323 1234 c 0
 401 1234 476 1180 479 1066 c 1
 404 1066 l 1
 404 1138 367 1172 325 1172 c 0
 281 1172 235 1134 235 1066 c 2
 235 836 l 1
 781 836 l 1
 781 -22 l 2
 781 -143 781 -271 567 -271 c 2
 487 -271 l 1
 487 -211 l 1
 565 -211 l 2
 702 -211 702 -149 702 -34 c 2
 702 779 l 1
 235 779 l 1
 235 60 l 1
 426 60 l 1
 426 0 l 1
 1 0 l 1
732 1205 m 0
 774 1205 794 1177 794 1148 c 0
 794 1121 773 1092 732 1092 c 0
 690 1092 670 1121 670 1148 c 0
 670 1177 690 1205 732 1205 c 0
EndSplineSet
EndChar

StartChar: fl
Encoding: 414 64258 194
Width: 1194
VWidth: 0
GlyphClass: 1
Flags: HW
LayerCount: 2
Fore
SplineSet
862 60 m 1
 862 1123 l 2
 862 1163 763 1190 651 1190 c 0
 505 1190 338 1123 338 965 c 2
 338 836 l 1
 541 836 l 1
 541 779 l 1
 338 779 l 1
 338 60 l 1
 529 60 l 1
 529 0 l 1
 104 0 l 1
 104 60 l 1
 259 60 l 1
 259 779 l 1
 104 779 l 1
 104 836 l 1
 259 836 l 1
 259 962 l 2
 259 1163 466 1253 652 1253 c 0
 804 1253 942 1210 942 1123 c 2
 942 60 l 1
 1125 60 l 1
 1125 0 l 1
 676 0 l 1
 676 60 l 1
 862 60 l 1
EndSplineSet
Ligature2: "'liga' Standard Ligatures in Latin lookup 0-1" f l
EndChar

StartChar: florin
Encoding: 328 402 195
Width: 729
VWidth: 0
GlyphClass: 1
Flags: HW
LayerCount: 2
Fore
SplineSet
724 1219 m 1
 710 1165 l 1
 680 1176 646 1183 614 1183 c 0
 564 1183 518 1157 501 1080 c 1
 434 836 l 1
 636 836 l 1
 621 779 l 1
 418 779 l 1
 220 60 l 2
 180 -86 74 -86 -18 -86 c 1
 -2 -24 l 1
 52 -24 118 -24 141 60 c 2
 339 779 l 1
 184 779 l 1
 200 836 l 1
 354 836 l 1
 422 1078 l 1
 448 1183 516 1244 610 1244 c 0
 644 1244 686 1236 724 1219 c 1
EndSplineSet
EndChar

StartChar: four
Encoding: 42 52 197
Width: 858
VWidth: 0
GlyphClass: 1
Flags: HW
LayerCount: 2
Fore
SplineSet
11 379 m 1
 0 442 l 1
 485 1234 l 1
 599 1234 l 1
 599 442 l 1
 856 442 l 1
 856 379 l 1
 599 379 l 1
 599 62 l 1
 760 62 l 1
 760 0 l 1
 357 0 l 1
 357 62 l 1
 518 62 l 1
 518 379 l 1
 11 379 l 1
93 442 m 1
 518 442 l 1
 518 1156 l 1
 93 442 l 1
EndSplineSet
EndChar

StartChar: uni2074
Encoding: 398 8308 198
Width: 770
VWidth: 0
GlyphClass: 1
Flags: HW
LayerCount: 2
Fore
SplineSet
83 260 m 1
 74 316 l 1
 412 866 l 1
 504 866 l 1
 504 323 l 1
 682 323 l 1
 682 260 l 1
 504 260 l 1
 504 61 l 1
 616 61 l 1
 616 0 l 1
 319 0 l 1
 319 61 l 1
 431 61 l 1
 431 260 l 1
 83 260 l 1
164 323 m 1
 431 323 l 1
 431 768 l 1
 342 620 253 472 164 323 c 1
EndSplineSet
EndChar

StartChar: fraction
Encoding: 397 8260 199
Width: 537
VWidth: 0
GlyphClass: 1
Flags: HW
LayerCount: 2
Fore
SplineSet
43 -23 m 1
 415 1255 l 1
 486 1255 l 1
 118 -23 l 1
 43 -23 l 1
EndSplineSet
EndChar

StartChar: g
Encoding: 93 103 200
Width: 1049
VWidth: 0
GlyphClass: 1
Flags: HW
PickledData: "(dp1
S'com.typemytype.robofont.layerData'
p2
(dp3
s."
LayerCount: 2
Fore
SplineSet
816 12 m 2
 816 120 l 1
 743 46 628 -14 483 -14 c 0
 198 -14 51 203 51 416 c 0
 51 610 170 854 474 854 c 0
 634 854 770 767 816 715 c 1
 829 836 l 1
 1025 836 l 1
 1025 779 l 1
 895 779 l 1
 895 29 l 2
 895 -312 597 -317 246 -317 c 1
 246 -248 l 1
 331 -248 l 2
 601 -248 816 -237 816 12 c 2
130 414 m 1
 136 216 266 53 478 53 c 0
 600 53 686 73 816 190 c 1
 816 647 l 1
 675 758 590 787 472 787 c 0
 236 787 130 594 130 414 c 1
EndSplineSet
EndChar

StartChar: germandbls
Encoding: 180 223 205
Width: 1081
VWidth: 0
GlyphClass: 1
Flags: HW
LayerCount: 2
Fore
SplineSet
295 62 m 1
 411 62 l 1
 411 0 l 1
 61 0 l 1
 61 62 l 1
 214 62 l 1
 214 851 l 2
 214 1106 316 1255 563 1255 c 0
 789 1255 913 1104 913 958 c 0
 913 838 856 708 694 676 c 1
 911 668 1048 517 1048 337 c 0
 1048 143 901 0 562 0 c 1
 562 62 l 1
 774 62 969 122 969 337 c 0
 969 493 863 641 570 641 c 1
 570 685 l 1
 749 694 834 829 834 955 c 0
 834 1072 744 1180 567 1180 c 0
 361 1180 295 1088 295 856 c 2
 295 62 l 1
EndSplineSet
EndChar

StartChar: grave
Encoding: 86 96 206
Width: 420
VWidth: 0
GlyphClass: 1
Flags: HW
LayerCount: 2
Fore
SplineSet
292 985 m 1
 261 985 l 1
 104 1234 l 1
 231 1234 l 1
 292 985 l 1
EndSplineSet
EndChar

StartChar: greater
Encoding: 52 62 207
Width: 909
VWidth: 0
GlyphClass: 1
Flags: HW
LayerCount: 2
Fore
SplineSet
933 613 m 1
 86 -23 l 1
 86 68 l 1
 819 613 l 1
 86 1162 l 1
 86 1255 l 1
 933 613 l 1
EndSplineSet
EndChar

StartChar: greaterequal
Encoding: 411 8805 208
Width: 903
VWidth: 0
GlyphClass: 1
Flags: HW
LayerCount: 2
Fore
SplineSet
821 553 m 1
 133 194 l 1
 133 262 l 1
 715 571 l 1
 133 882 l 1
 133 952 l 1
 821 590 l 1
 821 553 l 1
821 58 m 1
 821 0 l 1
 133 0 l 1
 133 58 l 1
 821 58 l 1
EndSplineSet
EndChar

StartChar: guillemotleft
Encoding: 128 171 209
Width: 778
VWidth: 0
GlyphClass: 1
Flags: HW
LayerCount: 2
Fore
SplineSet
343 664 m 1
 616 1043 l 1
 664 1043 l 1
 451 664 l 1
 664 281 l 1
 616 281 l 1
 343 664 l 1
76 664 m 1
 348 1043 l 1
 396 1043 l 1
 184 664 l 1
 396 281 l 1
 348 281 l 1
 76 664 l 1
EndSplineSet
EndChar

StartChar: guillemotright
Encoding: 144 187 210
Width: 778
VWidth: 0
GlyphClass: 1
Flags: HW
LayerCount: 2
Fore
SplineSet
165 1043 m 1
 437 664 l 1
 165 281 l 1
 117 281 l 1
 329 664 l 1
 117 1043 l 1
 165 1043 l 1
432 1043 m 1
 705 664 l 1
 432 281 l 1
 384 281 l 1
 597 664 l 1
 384 1043 l 1
 432 1043 l 1
EndSplineSet
EndChar

StartChar: guilsinglleft
Encoding: 395 8249 211
Width: 512
VWidth: 0
GlyphClass: 1
Flags: HW
LayerCount: 2
Fore
SplineSet
76 664 m 1
 348 1043 l 1
 396 1043 l 1
 184 664 l 1
 396 281 l 1
 348 281 l 1
 76 664 l 1
EndSplineSet
EndChar

StartChar: guilsinglright
Encoding: 396 8250 212
Width: 512
VWidth: 0
GlyphClass: 1
Flags: HW
LayerCount: 2
Fore
SplineSet
165 1043 m 1
 437 664 l 1
 165 281 l 1
 117 281 l 1
 329 664 l 1
 117 1043 l 1
 165 1043 l 1
EndSplineSet
EndChar

StartChar: h
Encoding: 94 104 213
Width: 1105
VWidth: 0
GlyphClass: 1
Flags: HW
PickledData: "(dp1
S'com.typemytype.robofont.layerData'
p2
(dp3
s."
LayerCount: 2
Fore
SplineSet
197 1176 m 1
 24 1176 l 1
 24 1234 l 1
 276 1234 l 1
 276 736 l 1
 419 815 498 854 633 854 c 0
 834 854 898 726 898 617 c 2
 898 60 l 1
 1073 60 l 1
 1073 0 l 1
 661 0 l 1
 661 60 l 1
 819 60 l 1
 819 601 l 2
 819 704 787 787 625 787 c 0
 486 787 385 726 276 664 c 1
 276 60 l 1
 468 60 l 1
 468 0 l 1
 35 0 l 1
 35 60 l 1
 197 60 l 1
 197 1176 l 1
EndSplineSet
EndChar

StartChar: hbar
Encoding: 250 295 214
Width: 1204
VWidth: 0
GlyphClass: 1
Flags: HW
LayerCount: 2
Fore
SplineSet
266 949 m 1
 92 949 l 1
 92 1012 l 1
 266 1012 l 1
 266 1176 l 1
 93 1176 l 1
 93 1234 l 1
 345 1234 l 1
 345 1012 l 1
 577 1012 l 1
 577 949 l 1
 345 949 l 1
 345 736 l 1
 488 815 567 854 702 854 c 0
 903 854 967 726 967 617 c 2
 967 60 l 1
 1142 60 l 1
 1142 0 l 1
 730 0 l 1
 730 60 l 1
 888 60 l 1
 888 601 l 2
 888 704 856 787 694 787 c 0
 555 787 454 726 345 664 c 1
 345 60 l 1
 537 60 l 1
 537 0 l 1
 104 0 l 1
 104 60 l 1
 266 60 l 1
 266 949 l 1
EndSplineSet
EndChar

StartChar: hungarumlaut
Encoding: 375 733 216
Width: 623
VWidth: 0
GlyphClass: 1
Flags: HW
LayerCount: 2
Fore
SplineSet
366 985 m 1
 335 985 l 1
 394 1234 l 1
 520 1234 l 1
 366 985 l 1
156 985 m 1
 125 985 l 1
 184 1234 l 1
 310 1234 l 1
 156 985 l 1
EndSplineSet
EndChar

StartChar: hyphen
Encoding: 35 45 217
Width: 786
VWidth: 0
GlyphClass: 1
Flags: HW
LayerCount: 2
Fore
SplineSet
661 475 m 1
 661 413 l 1
 131 413 l 1
 131 475 l 1
 661 475 l 1
EndSplineSet
EndChar

StartChar: i
Encoding: 95 105 218
Width: 432
VWidth: 0
GlyphClass: 1
Flags: HW
PickledData: "(dp1
S'com.typemytype.robofont.layerData'
p2
(dp3
s."
LayerCount: 2
Fore
SplineSet
223 1205 m 0
 265 1205 286 1177 286 1148 c 0
 286 1121 264 1092 223 1092 c 0
 181 1092 161 1121 161 1148 c 0
 161 1177 181 1205 223 1205 c 0
187 776 m 1
 37 776 l 1
 37 836 l 1
 266 836 l 1
 266 60 l 1
 420 60 l 1
 420 0 l 1
 37 0 l 1
 37 60 l 1
 187 60 l 1
 187 776 l 1
EndSplineSet
EndChar

StartChar: ij
Encoding: 262 307 224
Width: 1008
VWidth: 0
GlyphClass: 1
Flags: HW
LayerCount: 2
Fore
SplineSet
742 -34 m 2
 742 779 l 1
 605 779 l 1
 605 836 l 1
 821 836 l 1
 821 -22 l 2
 821 -143 821 -271 607 -271 c 2
 527 -271 l 1
 527 -211 l 1
 605 -211 l 2
 742 -211 742 -149 742 -34 c 2
786 1205 m 0
 828 1205 848 1177 848 1148 c 0
 848 1121 827 1092 786 1092 c 0
 744 1092 724 1121 724 1148 c 0
 724 1177 744 1205 786 1205 c 0
299 1205 m 0
 341 1205 362 1177 362 1148 c 0
 362 1121 340 1092 299 1092 c 0
 257 1092 237 1121 237 1148 c 0
 237 1177 257 1205 299 1205 c 0
263 776 m 1
 113 776 l 1
 113 836 l 1
 342 836 l 1
 342 60 l 1
 496 60 l 1
 496 0 l 1
 113 0 l 1
 113 60 l 1
 263 60 l 1
 263 776 l 1
EndSplineSet
EndChar

StartChar: infinity
Encoding: 406 8734 226
Width: 1294
VWidth: 0
GlyphClass: 1
Flags: HW
LayerCount: 2
Fore
SplineSet
1160 548 m 0
 1160 365 1033 265 912 265 c 0
 816 265 723 313 650 462 c 1
 576 325 481 270 387 270 c 0
 217 270 135 397 135 553 c 0
 135 703 231 836 387 836 c 0
 468 836 577 782 647 644 c 1
 711 763 799 832 913 832 c 0
 1037 832 1160 738 1160 548 c 0
914 780 m 0
 817 780 745 702 673 548 c 1
 747 382 812 316 915 316 c 0
 1019 316 1092 409 1092 550 c 0
 1092 679 1021 780 914 780 c 0
381 320 m 0
 470 320 546 390 621 553 c 1
 557 701 477 785 379 785 c 0
 258 785 203 661 203 552 c 0
 203 422 263 320 381 320 c 0
EndSplineSet
EndChar

StartChar: integral
Encoding: 407 8747 227
Width: 700
VWidth: 0
GlyphClass: 1
Flags: HW
LayerCount: 2
Fore
SplineSet
132 60 m 2
 413 1078 l 2
 442 1182 506 1244 601 1244 c 0
 635 1244 677 1236 715 1219 c 1
 701 1165 l 1
 671 1176 637 1183 605 1183 c 0
 554 1183 513 1156 492 1080 c 2
 211 60 l 2
 171 -86 65 -86 -27 -86 c 1
 -11 -24 l 1
 43 -24 109 -24 132 60 c 2
EndSplineSet
EndChar

StartChar: j
Encoding: 96 106 230
Width: 385
VWidth: 0
GlyphClass: 1
Flags: HW
PickledData: "(dp1
S'com.typemytype.robofont.layerData'
p2
(dp3
s."
LayerCount: 2
Fore
SplineSet
195 -34 m 2
 195 779 l 1
 58 779 l 1
 58 836 l 1
 274 836 l 1
 274 -22 l 2
 274 -143 274 -271 60 -271 c 2
 -20 -271 l 1
 -20 -211 l 1
 58 -211 l 2
 195 -211 195 -149 195 -34 c 2
225 1205 m 0
 267 1205 287 1177 287 1148 c 0
 287 1121 266 1092 225 1092 c 0
 183 1092 163 1121 163 1148 c 0
 163 1177 183 1205 225 1205 c 0
EndSplineSet
EndChar

StartChar: k
Encoding: 97 107 232
Width: 1000
VWidth: 0
GlyphClass: 1
Flags: HW
PickledData: "(dp1
S'com.typemytype.robofont.layerData'
p2
(dp3
s."
LayerCount: 2
Fore
SplineSet
210 1174 m 1
 24 1174 l 1
 24 1234 l 1
 289 1234 l 1
 289 454 l 1
 683 776 l 1
 559 776 l 1
 559 836 l 1
 944 836 l 1
 944 776 l 1
 785 776 l 1
 382 439 l 1
 828 60 l 1
 979 60 l 1
 979 0 l 1
 596 0 l 1
 596 60 l 1
 719 60 l 1
 289 431 l 1
 289 60 l 1
 473 60 l 1
 473 0 l 1
 24 0 l 1
 24 60 l 1
 210 60 l 1
 210 1174 l 1
EndSplineSet
EndChar

StartChar: kgreenlandic
Encoding: 267 312 234
Width: 1141
VWidth: 0
GlyphClass: 1
Flags: HW
LayerCount: 2
Fore
SplineSet
288 778 m 1
 102 778 l 1
 102 838 l 1
 367 838 l 1
 367 445 l 1
 761 776 l 1
 637 776 l 1
 637 836 l 1
 1022 836 l 1
 1022 776 l 1
 863 776 l 1
 460 439 l 1
 906 60 l 1
 1057 60 l 1
 1057 0 l 1
 674 0 l 1
 674 60 l 1
 797 60 l 1
 367 422 l 1
 367 60 l 1
 551 60 l 1
 551 0 l 1
 102 0 l 1
 102 60 l 1
 288 60 l 1
 288 778 l 1
EndSplineSet
EndChar

StartChar: l
Encoding: 98 108 235
Width: 466
VWidth: 0
GlyphClass: 1
Flags: HW
PickledData: "(dp1
S'com.typemytype.robofont.layerData'
p2
(dp3
s."
LayerCount: 2
Fore
SplineSet
200 1174 m 1
 14 1174 l 1
 14 1234 l 1
 279 1234 l 1
 279 60 l 1
 463 60 l 1
 463 0 l 1
 14 0 l 1
 14 60 l 1
 200 60 l 1
 200 1174 l 1
EndSplineSet
EndChar

StartChar: less
Encoding: 50 60 240
Width: 907
VWidth: 0
GlyphClass: 1
Flags: HW
LayerCount: 2
Fore
SplineSet
829 -23 m 1
 -18 613 l 1
 829 1255 l 1
 829 1162 l 1
 96 613 l 1
 829 68 l 1
 829 -23 l 1
EndSplineSet
EndChar

StartChar: lessequal
Encoding: 410 8804 241
Width: 905
VWidth: 0
GlyphClass: 1
Flags: HW
LayerCount: 2
Fore
SplineSet
776 194 m 1
 88 553 l 1
 88 590 l 1
 776 952 l 1
 776 882 l 1
 194 571 l 1
 776 262 l 1
 776 194 l 1
88 0 m 1
 88 58 l 1
 776 58 l 1
 776 0 l 1
 88 0 l 1
EndSplineSet
EndChar

StartChar: logicalnot
Encoding: 129 172 242
Width: 987
VWidth: 0
GlyphClass: 1
Flags: HW
LayerCount: 2
Fore
SplineSet
100 697 m 1
 838 697 l 1
 838 304 l 1
 761 304 l 1
 761 617 l 1
 100 617 l 1
 100 697 l 1
EndSplineSet
EndChar

StartChar: lozenge
Encoding: 412 9674 243
Width: 907
VWidth: 0
GlyphClass: 1
Flags: HW
LayerCount: 2
Fore
SplineSet
881 616 m 1
 481 -23 l 1
 430 -23 l 1
 29 614 l 1
 430 1254 l 1
 481 1254 l 1
 881 616 l 1
799 616 m 1
 458 1181 l 1
 115 616 l 1
 458 47 l 1
 799 616 l 1
EndSplineSet
EndChar

StartChar: lslash
Encoding: 277 322 244
Width: 680
VWidth: 0
GlyphClass: 1
Flags: HW
LayerCount: 2
Fore
SplineSet
313 1174 m 1
 127 1174 l 1
 127 1234 l 1
 392 1234 l 1
 392 786 l 1
 563 887 l 1
 563 807 l 1
 392 709 l 1
 392 60 l 1
 576 60 l 1
 576 0 l 1
 127 0 l 1
 127 60 l 1
 313 60 l 1
 313 664 l 1
 127 557 l 1
 141 637 l 1
 313 739 l 1
 313 1174 l 1
EndSplineSet
EndChar

StartChar: m
Encoding: 99 109 245
Width: 1552
VWidth: 0
GlyphClass: 1
Flags: HW
PickledData: "(dp1
S'com.typemytype.robofont.layerData'
p2
(dp3
s."
LayerCount: 2
Fore
SplineSet
197 779 m 1
 24 779 l 1
 24 836 l 1
 264 836 l 1
 273 736 l 1
 401 815 473 854 593 854 c 0
 701 854 761 797 790 727 c 1
 803 736 l 1
 932 815 1007 854 1127 854 c 0
 1290 854 1344 726 1344 617 c 2
 1344 60 l 1
 1520 60 l 1
 1520 0 l 1
 1108 0 l 1
 1108 60 l 1
 1265 60 l 1
 1265 601 l 2
 1265 704 1244 787 1120 787 c 0
 995 787 905 726 807 664 c 1
 809 648 810 632 810 617 c 2
 810 60 l 1
 986 60 l 1
 986 0 l 1
 574 0 l 1
 574 60 l 1
 731 60 l 1
 731 601 l 2
 731 704 710 787 586 787 c 0
 461 787 375 726 276 664 c 1
 276 60 l 1
 432 60 l 1
 432 0 l 1
 35 0 l 1
 35 60 l 1
 197 60 l 1
 197 779 l 1
EndSplineSet
EndChar

StartChar: macron
Encoding: 132 175 246
Width: 662
VWidth: 0
GlyphClass: 1
Flags: HW
LayerCount: 2
Fore
SplineSet
131 1058 m 1
 131 1123 l 1
 522 1123 l 1
 522 1058 l 1
 131 1058 l 1
EndSplineSet
EndChar

StartChar: minus
Encoding: 65538 8722 247
Width: 1233
VWidth: 0
GlyphClass: 1
Flags: HW
LayerCount: 2
Fore
SplineSet
125 959 m 1
 1109 959 l 1
 1109 872 l 1
 125 872 l 1
 125 959 l 1
EndSplineSet
EndChar

StartChar: uni00B5
Encoding: 138 181 248
AltUni2: 0003bc.ffffffff.0
Width: 1190
VWidth: 0
GlyphClass: 1
Flags: HW
LayerCount: 2
Fore
SplineSet
933 58 m 1
 1106 58 l 1
 1106 0 l 1
 866 0 l 1
 858 104 l 1
 725 25 647 -14 522 -14 c 0
 439 -14 380 7 339 40 c 1
 339 -232 l 1
 259 -232 l 1
 259 776 l 1
 84 776 l 1
 84 836 l 1
 338 836 l 1
 339 208 l 1
 345 119 383 53 529 53 c 0
 659 53 752 110 854 173 c 1
 854 776 l 1
 680 776 l 1
 680 836 l 1
 933 836 l 1
 933 58 l 1
EndSplineSet
EndChar

StartChar: multiply
Encoding: 172 215 249
Width: 637
VWidth: 0
GlyphClass: 1
Flags: HW
LayerCount: 2
Fore
SplineSet
78 768 m 1
 122 812 l 1
 325 610 l 1
 529 814 l 1
 573 769 l 1
 371 565 l 1
 573 361 l 1
 529 317 l 1
 325 521 l 1
 122 318 l 1
 78 362 l 1
 281 565 l 1
 78 768 l 1
EndSplineSet
EndChar

StartChar: n
Encoding: 100 110 250
Width: 1069
VWidth: 0
GlyphClass: 1
Flags: HW
PickledData: "(dp1
S'com.typemytype.robofont.layerData'
p2
(dp3
s."
LayerCount: 2
Fore
SplineSet
205 779 m 1
 25 779 l 1
 25 836 l 1
 273 836 l 1
 281 736 l 1
 406 820 499 854 629 854 c 0
 821 854 882 726 882 617 c 2
 882 60 l 1
 1037 60 l 1
 1037 0 l 1
 636 0 l 1
 636 60 l 1
 803 60 l 1
 803 601 l 2
 803 704 774 787 622 787 c 0
 487 787 393 743 285 668 c 1
 285 60 l 1
 457 60 l 1
 457 0 l 1
 24 0 l 1
 24 60 l 1
 205 60 l 1
 205 779 l 1
EndSplineSet
EndChar

StartChar: nine
Encoding: 47 57 255
Width: 803
VWidth: 0
GlyphClass: 1
Flags: HW
LayerCount: 2
Fore
SplineSet
93 878 m 0
 93 677 249 575 405 575 c 0
 562 575 721 679 721 888 c 0
 721 1038 620 1183 410 1183 c 0
 198 1183 93 1031 93 878 c 0
306 -128 m 1
 238 -82 l 1
 590 554 l 1
 525 522 458 506 394 506 c 0
 188 506 12 662 12 862 c 0
 12 1064 150 1255 410 1255 c 0
 604 1255 798 1104 798 892 c 0
 798 749 663 535 663 535 c 1
 306 -128 l 1
EndSplineSet
EndChar

StartChar: notequal
Encoding: 409 8800 256
Width: 879
VWidth: 0
GlyphClass: 1
Flags: HW
LayerCount: 2
Fore
SplineSet
94 677 m 1
 468 677 l 1
 517 868 l 1
 575 868 l 1
 522 677 l 1
 797 677 l 1
 797 613 l 1
 510 613 l 1
 437 337 l 1
 797 337 l 1
 797 276 l 1
 420 276 l 1
 373 84 l 1
 313 84 l 1
 363 276 l 1
 94 276 l 1
 94 337 l 1
 381 337 l 1
 453 613 l 1
 94 613 l 1
 94 677 l 1
EndSplineSet
EndChar

StartChar: numbersign
Encoding: 25 35 258
Width: 1034
VWidth: 0
GlyphClass: 1
Flags: HW
LayerCount: 2
Fore
SplineSet
94 880 m 1
 269 880 l 1
 298 1234 l 1
 377 1234 l 1
 348 880 l 1
 713 880 l 1
 742 1234 l 1
 821 1234 l 1
 792 880 l 1
 980 880 l 1
 975 821 l 1
 787 821 l 1
 757 457 l 1
 944 457 l 1
 939 398 l 1
 752 398 l 1
 719 0 l 1
 640 0 l 1
 673 398 l 1
 308 398 l 1
 275 0 l 1
 196 0 l 1
 229 398 l 1
 53 398 l 1
 58 457 l 1
 234 457 l 1
 264 821 l 1
 89 821 l 1
 94 880 l 1
343 821 m 1
 313 457 l 1
 678 457 l 1
 708 821 l 1
 343 821 l 1
EndSplineSet
EndChar

StartChar: o
Encoding: 101 111 259
Width: 1004
VWidth: 0
GlyphClass: 1
Flags: HW
PickledData: "(dp1
S'com.typemytype.robofont.layerData'
p2
(dp3
s."
LayerCount: 2
Fore
SplineSet
873 424 m 0
 873 661 686 787 500 787 c 0
 315 787 133 661 133 424 c 0
 133 178 315 53 500 53 c 0
 686 53 873 178 873 424 c 0
953 424 m 0
 953 134 726 -14 500 -14 c 0
 275 -14 51 136 51 424 c 0
 51 706 273 854 500 854 c 0
 725 854 953 709 953 424 c 0
EndSplineSet
EndChar

StartChar: oe
Encoding: 291 339 264
Width: 1720
VWidth: 0
GlyphClass: 1
Flags: HW
LayerCount: 2
Fore
SplineSet
939 400 m 1
 955 169 1113 52 1288 52 c 0
 1409 52 1533 106 1622 204 c 1
 1655 149 l 1
 1538 35 1407 -14 1285 -14 c 0
 1113 -14 965 83 897 232 c 1
 827 68 659 -14 501 -14 c 0
 275 -14 59 136 59 424 c 0
 59 706 274 854 501 854 c 0
 659 854 829 772 898 610 c 1
 958 748 1089 854 1292 854 c 0
 1533 854 1678 648 1678 400 c 1
 939 400 l 1
857 424 m 0
 857 661 675 787 501 787 c 0
 316 787 141 661 141 424 c 0
 141 178 316 53 501 53 c 0
 675 53 857 178 857 424 c 0
941 466 m 1
 1600 466 l 1
 1586 632 1479 787 1292 787 c 0
 1067 787 950 623 941 466 c 1
EndSplineSet
EndChar

StartChar: ogonek
Encoding: 373 731 265
Width: 530
VWidth: 0
GlyphClass: 1
Flags: HW
LayerCount: 2
Fore
SplineSet
240 0 m 1
 293 0 l 1
 232 -58 202 -121 202 -174 c 0
 202 -251 257 -278 320 -278 c 0
 356 -278 393 -269 425 -256 c 1
 425 -319 l 1
 382 -348 328 -364 278 -364 c 0
 194 -364 119 -320 119 -227 c 0
 119 -149 165 -56 240 0 c 1
EndSplineSet
EndChar

StartChar: one
Encoding: 39 49 269
Width: 431
VWidth: 0
GlyphClass: 1
Flags: HW
LayerCount: 2
Fore
SplineSet
262 62 m 1
 431 62 l 1
 431 0 l 1
 4 0 l 1
 4 62 l 1
 181 62 l 1
 181 1147 l 1
 25 1118 l 1
 8 1186 l 1
 262 1234 l 1
 262 62 l 1
EndSplineSet
EndChar

StartChar: onehalf
Encoding: 146 189 270
Width: 1339
VWidth: 0
GlyphClass: 1
Flags: HW
LayerCount: 2
Fore
SplineSet
398 426 m 1
 398 365 l 1
 86 365 l 1
 86 426 l 1
 207 426 l 1
 207 1152 l 1
 103 1132 l 1
 86 1197 l 1
 281 1234 l 1
 281 426 l 1
 398 426 l 1
1195 640 m 0
 1195 755 1126 812 988 812 c 0
 901 812 819 749 819 627 c 0
 819 599 823 569 830 535 c 1
 752 535 l 1
 747 558 744 599 744 657 c 0
 744 772 856 881 1012 881 c 0
 1169 881 1273 790 1273 631 c 0
 1273 526 1159 370 932 164 c 0
 887 123 854 92 834 72 c 1
 1232 72 l 1
 1232 0 l 1
 726 0 l 1
 726 70 l 1
 738 82 758 100 786 125 c 0
 1059 366 1195 537 1195 640 c 0
742 1255 m 1
 813 1255 l 1
 445 -23 l 1
 370 -23 l 1
 742 1255 l 1
EndSplineSet
EndChar

StartChar: onequarter
Encoding: 145 188 271
Width: 1348
VWidth: 0
GlyphClass: 1
Flags: HW
LayerCount: 2
Fore
SplineSet
398 426 m 1
 398 365 l 1
 86 365 l 1
 86 426 l 1
 207 426 l 1
 207 1152 l 1
 103 1132 l 1
 86 1197 l 1
 281 1234 l 1
 281 426 l 1
 398 426 l 1
717 316 m 1
 1055 866 l 1
 1147 866 l 1
 1147 323 l 1
 1325 323 l 1
 1325 260 l 1
 1147 260 l 1
 1147 61 l 1
 1259 61 l 1
 1259 0 l 1
 962 0 l 1
 962 61 l 1
 1074 61 l 1
 1074 260 l 1
 726 260 l 1
 717 316 l 1
1074 323 m 1
 1074 768 l 1
 983 616 896 476 807 323 c 1
 1074 323 l 1
781 1255 m 1
 852 1255 l 1
 484 -23 l 1
 409 -23 l 1
 781 1255 l 1
EndSplineSet
EndChar

StartChar: uni00B9
Encoding: 142 185 272
Width: 551
VWidth: 0
GlyphClass: 1
Flags: HW
LayerCount: 2
Fore
SplineSet
322 61 m 1
 439 61 l 1
 439 0 l 1
 127 0 l 1
 127 61 l 1
 248 61 l 1
 248 787 l 1
 144 767 l 1
 127 832 l 1
 322 869 l 1
 322 61 l 1
EndSplineSet
EndChar

StartChar: ordfeminine
Encoding: 127 170 273
Width: 805
VWidth: 0
GlyphClass: 1
Flags: HW
LayerCount: 2
Fore
SplineSet
328 641 m 0
 190 641 123 725 123 818 c 0
 123 979 255 996 381 996 c 0
 431 996 479 988 531 978 c 1
 531 1055 l 2
 531 1158 472 1192 376 1192 c 0
 292 1192 227 1169 183 1123 c 1
 147 1181 l 1
 203 1235 282 1255 377 1255 c 0
 564 1255 604 1145 604 1067 c 2
 604 710 l 1
 710 710 l 1
 710 650 l 1
 542 650 l 1
 533 708 l 1
 471 666 406 641 328 641 c 0
531 772 m 1
 531 917 l 1
 509 922 443 932 387 932 c 0
 383 932 379 932 375 932 c 0
 296 932 197 929 197 817 c 0
 197 766 231 706 335 706 c 0
 410 706 474 721 531 772 c 1
EndSplineSet
EndChar

StartChar: ordmasculine
Encoding: 143 186 274
Width: 874
VWidth: 0
GlyphClass: 1
Flags: HW
LayerCount: 2
Fore
SplineSet
681 950 m 0
 681 1109 557 1192 435 1192 c 0
 312 1192 191 1109 191 950 c 0
 191 788 312 706 435 706 c 0
 557 706 681 788 681 950 c 0
755 950 m 0
 755 746 594 641 435 641 c 0
 275 641 117 746 117 950 c 0
 117 1151 274 1255 435 1255 c 0
 594 1255 755 1153 755 950 c 0
EndSplineSet
EndChar

StartChar: oslash
Encoding: 205 248 275
Width: 997
VWidth: 0
GlyphClass: 1
Flags: HW
LayerCount: 2
Fore
SplineSet
666 752 m 1
 614 775 557 787 500 787 c 0
 315 787 133 661 133 424 c 0
 133 257 217 146 329 92 c 1
 666 752 l 1
708 730 m 1
 372 74 l 1
 413 60 456 53 500 53 c 0
 686 53 873 178 873 424 c 0
 873 568 804 671 708 730 c 1
953 424 m 0
 953 134 726 -14 500 -14 c 0
 446 -14 391 -5 340 12 c 1
 234 -196 l 1
 194 -172 l 1
 297 29 l 1
 157 93 51 226 51 424 c 0
 51 706 273 854 500 854 c 0
 568 854 636 840 698 814 c 1
 813 1039 l 1
 854 1015 l 1
 741 794 l 1
 863 727 953 603 953 424 c 0
EndSplineSet
EndChar

StartChar: p
Encoding: 102 112 277
Width: 1045
VWidth: 0
GlyphClass: 1
Flags: HW
PickledData: "(dp1
S'com.typemytype.robofont.layerData'
p2
(dp3
s."
LayerCount: 2
Fore
SplineSet
358 -322 m 1
 -17 -322 l 1
 -17 -262 l 1
 132 -262 l 1
 132 780 l 1
 -11 780 l 1
 -11 840 l 1
 198 840 l 1
 211 715 l 1
 258 767 393 854 558 854 c 0
 877 854 994 600 994 406 c 0
 994 196 841 -14 555 -14 c 0
 405 -14 286 40 211 129 c 1
 211 -262 l 1
 358 -262 l 1
 358 -322 l 1
915 414 m 0
 915 595 801 787 561 787 c 0
 439 787 356 758 211 647 c 1
 211 205 l 1
 345 68 432 53 559 53 c 0
 779 53 915 216 915 414 c 0
EndSplineSet
EndChar

StartChar: paragraph
Encoding: 139 182 278
Width: 1020
VWidth: 0
GlyphClass: 1
Flags: HW
LayerCount: 2
Fore
SplineSet
709 -23 m 1
 709 661 l 1
 513 661 l 1
 513 -23 l 1
 432 -23 l 1
 432 661 l 1
 396 661 l 2
 172 661 57 810 57 955 c 0
 57 1094 172 1234 396 1234 c 2
 956 1234 l 1
 956 1171 l 1
 790 1171 l 1
 790 -23 l 1
 709 -23 l 1
EndSplineSet
EndChar

StartChar: parenleft
Encoding: 30 40 279
Width: 580
VWidth: 0
GlyphClass: 1
Flags: HW
LayerCount: 2
Fore
SplineSet
106 616 m 0
 106 911 239 1201 508 1268 c 1
 508 1200 l 1
 277 1117 191 864 191 616 c 0
 191 367 277 114 508 31 c 1
 508 -37 l 1
 239 30 106 320 106 616 c 0
EndSplineSet
EndChar

StartChar: parenright
Encoding: 31 41 280
Width: 588
VWidth: 0
GlyphClass: 1
Flags: HW
LayerCount: 2
Fore
SplineSet
480 616 m 0
 480 320 346 30 78 -37 c 1
 78 31 l 1
 308 114 394 367 394 616 c 0
 394 864 308 1117 78 1200 c 1
 78 1268 l 1
 346 1201 480 911 480 616 c 0
EndSplineSet
EndChar

StartChar: partialdiff
Encoding: 401 8706 281
Width: 887
VWidth: 0
GlyphClass: 1
Flags: HW
LayerCount: 2
Fore
SplineSet
131 354 m 0
 131 202 235 49 448 49 c 0
 658 49 758 194 758 344 c 0
 758 553 600 658 443 658 c 0
 287 658 131 556 131 354 c 0
276 1314 m 1
 343 1361 l 1
 701 697 l 1
 701 697 835 484 835 341 c 0
 835 128 642 -23 448 -23 c 0
 187 -23 49 168 49 371 c 0
 49 570 226 726 432 726 c 0
 496 726 563 710 628 678 c 1
 276 1314 l 1
EndSplineSet
EndChar

StartChar: percent
Encoding: 27 37 282
Width: 1610
VWidth: 0
GlyphClass: 1
Flags: HW
LayerCount: 2
Fore
SplineSet
341 0 m 1
 1446 1310 l 1
 1487 1270 l 1
 386 -47 l 1
 341 0 l 1
720 950 m 0
 720 1109 596 1192 474 1192 c 0
 351 1192 230 1109 230 950 c 0
 230 788 351 706 474 706 c 0
 596 706 720 788 720 950 c 0
794 950 m 0
 794 746 633 641 474 641 c 0
 314 641 156 746 156 950 c 0
 156 1151 313 1255 474 1255 c 0
 633 1255 794 1153 794 950 c 0
1561 284 m 0
 1561 443 1437 526 1315 526 c 0
 1192 526 1071 443 1071 284 c 0
 1071 122 1192 40 1315 40 c 0
 1437 40 1561 122 1561 284 c 0
1635 284 m 0
 1635 80 1474 -25 1315 -25 c 0
 1155 -25 997 80 997 284 c 0
 997 485 1154 589 1315 589 c 0
 1474 589 1635 487 1635 284 c 0
EndSplineSet
EndChar

StartChar: period
Encoding: 36 46 283
Width: 403
VWidth: 0
GlyphClass: 1
Flags: HW
LayerCount: 2
Fore
SplineSet
147 120 m 1
 263 120 l 1
 263 0 l 1
 147 0 l 1
 147 120 l 1
EndSplineSet
EndChar

StartChar: periodcentered
Encoding: 140 183 284
Width: 369
VWidth: 0
GlyphClass: 1
Flags: HW
LayerCount: 2
Fore
SplineSet
125 815 m 1
 242 815 l 1
 242 695 l 1
 125 695 l 1
 125 815 l 1
EndSplineSet
EndChar

StartChar: pi
Encoding: 381 960 285
Width: 1137
VWidth: 0
GlyphClass: 1
Flags: HW
LayerCount: 2
Fore
SplineSet
963 836 m 1
 963 806 l 1
 855 806 l 1
 855 168 l 2
 855 82 877 49 927 49 c 0
 943 49 961 52 983 58 c 1
 983 13 l 1
 945 -6 914 -13 887 -13 c 0
 803 -13 768 70 768 179 c 2
 769 806 l 1
 407 806 l 1
 372 308 l 2
 356 78 302 -4 162 -4 c 1
 162 53 l 1
 285 53 270 144 287 330 c 2
 330 806 l 1
 281 806 l 2
 229 806 209 764 205 709 c 1
 168 709 l 1
 168 796 183 836 282 836 c 2
 963 836 l 1
EndSplineSet
EndChar

StartChar: plus
Encoding: 33 43 286
Width: 811
VWidth: 0
GlyphClass: 1
Flags: HW
LayerCount: 2
Fore
SplineSet
439 982 m 1
 439 598 l 1
 794 598 l 1
 794 534 l 1
 439 534 l 1
 439 138 l 1
 377 138 l 1
 377 534 l 1
 20 534 l 1
 20 598 l 1
 377 598 l 1
 377 982 l 1
 439 982 l 1
EndSplineSet
EndChar

StartChar: plusminus
Encoding: 134 177 287
Width: 901
VWidth: 0
GlyphClass: 1
Flags: HW
LayerCount: 2
Fore
SplineSet
840 0 m 1
 66 0 l 1
 66 62 l 1
 840 62 l 1
 840 0 l 1
486 982 m 1
 486 598 l 1
 842 598 l 1
 842 534 l 1
 486 534 l 1
 486 138 l 1
 424 138 l 1
 424 534 l 1
 68 534 l 1
 68 598 l 1
 424 598 l 1
 424 982 l 1
 486 982 l 1
EndSplineSet
EndChar

StartChar: q
Encoding: 103 113 289
Width: 1044
VWidth: 0
GlyphClass: 1
Flags: HW
PickledData: "(dp1
S'com.typemytype.robofont.layerData'
p2
(dp3
s."
LayerCount: 2
Fore
SplineSet
1024 -322 m 1
 649 -322 l 1
 649 -262 l 1
 796 -262 l 1
 796 97 l 1
 721 36 620 -14 470 -14 c 0
 183 -14 51 196 51 406 c 0
 51 600 147 854 466 854 c 0
 632 854 750 767 796 715 c 1
 810 836 l 1
 1009 836 l 1
 1009 776 l 1
 876 776 l 1
 876 -262 l 1
 1024 -262 l 1
 1024 -322 l 1
131 414 m 0
 131 216 245 53 465 53 c 0
 592 53 662 65 796 163 c 1
 796 647 l 1
 651 758 585 787 464 787 c 0
 224 787 131 595 131 414 c 0
EndSplineSet
EndChar

StartChar: question
Encoding: 53 63 290
Width: 727
VWidth: 0
GlyphClass: 1
Flags: HW
LayerCount: 2
Fore
SplineSet
81 1004 m 1
 20 1040 l 1
 74 1168 194 1223 322 1223 c 0
 494 1223 642 1106 642 923 c 0
 642 612 337 695 313 289 c 1
 280 289 l 1
 280 730 565 664 565 923 c 0
 565 1039 489 1151 325 1151 c 0
 198 1151 117 1090 81 1004 c 1
349 56 m 1
 349 -23 l 1
 265 -23 l 1
 265 56 l 1
 349 56 l 1
EndSplineSet
EndChar

StartChar: questiondown
Encoding: 148 191 291
Width: 692
VWidth: 0
GlyphClass: 1
Flags: HW
LayerCount: 2
Fore
SplineSet
622 196 m 1
 683 160 l 1
 629 32 509 -23 381 -23 c 0
 209 -23 61 94 61 277 c 0
 61 588 366 505 390 911 c 1
 423 911 l 1
 423 470 138 536 138 277 c 0
 138 161 214 49 378 49 c 0
 505 49 586 110 622 196 c 1
354 1144 m 1
 354 1223 l 1
 438 1223 l 1
 438 1144 l 1
 354 1144 l 1
EndSplineSet
EndChar

StartChar: quotedbl
Encoding: 24 34 292
Width: 543
VWidth: 0
GlyphClass: 1
Flags: HW
LayerCount: 2
Fore
SplineSet
416 1234 m 1
 383 854 l 1
 351 854 l 1
 325 1234 l 1
 416 1234 l 1
223 1234 m 1
 190 854 l 1
 158 854 l 1
 131 1234 l 1
 223 1234 l 1
EndSplineSet
EndChar

StartChar: quotedblbase
Encoding: 389 8222 293
Width: 664
VWidth: 0
GlyphClass: 1
Flags: HW
LayerCount: 2
Fore
SplineSet
148 116 m 1
 274 116 l 1
 274 -6 l 2
 274 -104 240 -180 139 -180 c 1
 139 -136 l 1
 205 -114 210 -88 210 -4 c 1
 148 -4 l 1
 148 116 l 1
399 116 m 1
 525 116 l 1
 525 -6 l 2
 525 -104 490 -180 390 -180 c 1
 390 -136 l 1
 456 -114 460 -88 460 -4 c 1
 399 -4 l 1
 399 116 l 1
EndSplineSet
EndChar

StartChar: quotedblleft
Encoding: 387 8220 294
Width: 627
VWidth: 0
GlyphClass: 1
Flags: HW
LayerCount: 2
Fore
SplineSet
487 959 m 1
 361 959 l 1
 361 1081 l 2
 361 1180 396 1255 497 1255 c 1
 497 1211 l 1
 431 1189 426 1163 426 1079 c 1
 487 1079 l 1
 487 959 l 1
261 959 m 1
 135 959 l 1
 135 1081 l 2
 135 1180 170 1255 271 1255 c 1
 271 1211 l 1
 205 1189 200 1163 200 1079 c 1
 261 1079 l 1
 261 959 l 1
EndSplineSet
EndChar

StartChar: quotedblright
Encoding: 388 8221 295
Width: 627
VWidth: 0
GlyphClass: 1
Flags: HW
LayerCount: 2
Fore
SplineSet
143 1234 m 1
 269 1234 l 1
 269 1111 l 2
 269 1013 234 937 133 937 c 1
 133 982 l 1
 199 1003 204 1030 204 1114 c 1
 143 1114 l 1
 143 1234 l 1
369 1234 m 1
 495 1234 l 1
 495 1111 l 2
 495 1013 460 937 359 937 c 1
 359 982 l 1
 425 1003 430 1030 430 1114 c 1
 369 1114 l 1
 369 1234 l 1
EndSplineSet
EndChar

StartChar: quoteleft
Encoding: 384 8216 296
Width: 401
VWidth: 0
GlyphClass: 1
Flags: HW
LayerCount: 2
Fore
SplineSet
261 959 m 1
 135 959 l 1
 135 1081 l 2
 135 1180 170 1255 271 1255 c 1
 271 1211 l 1
 205 1189 200 1163 200 1079 c 1
 261 1079 l 1
 261 959 l 1
EndSplineSet
EndChar

StartChar: quoteright
Encoding: 385 8217 297
Width: 401
VWidth: 0
GlyphClass: 1
Flags: HW
LayerCount: 2
Fore
SplineSet
143 1234 m 1
 269 1234 l 1
 269 1111 l 2
 269 1013 234 937 133 937 c 1
 133 982 l 1
 199 1003 204 1030 204 1114 c 1
 143 1114 l 1
 143 1234 l 1
EndSplineSet
EndChar

StartChar: quotesinglbase
Encoding: 386 8218 298
Width: 412
VWidth: 0
GlyphClass: 1
Flags: HW
LayerCount: 2
Fore
SplineSet
148 116 m 1
 274 116 l 1
 274 -6 l 2
 274 -104 240 -180 139 -180 c 1
 139 -136 l 1
 205 -114 210 -88 210 -4 c 1
 148 -4 l 1
 148 116 l 1
EndSplineSet
EndChar

StartChar: quotesingle
Encoding: 29 39 299
Width: 350
VWidth: 0
GlyphClass: 1
Flags: HW
LayerCount: 2
Fore
SplineSet
223 1234 m 1
 190 854 l 1
 158 854 l 1
 131 1234 l 1
 223 1234 l 1
EndSplineSet
EndChar

StartChar: r
Encoding: 104 114 300
Width: 676
VWidth: 0
GlyphClass: 1
Flags: HW
PickledData: "(dp1
S'com.typemytype.robofont.layerData'
p2
(dp3
s."
LayerCount: 2
Fore
SplineSet
287 60 m 1
 470 60 l 1
 470 0 l 1
 24 0 l 1
 24 60 l 1
 208 60 l 1
 208 779 l 1
 25 779 l 1
 25 836 l 1
 275 836 l 1
 287 652 l 1
 320 774 402 854 515 854 c 0
 564 854 608 844 668 817 c 1
 668 746 l 1
 613 773 560 787 514 787 c 0
 380 787 287 670 287 468 c 2
 287 60 l 1
EndSplineSet
EndChar

StartChar: registered
Encoding: 131 174 305
Width: 1458
VWidth: 0
GlyphClass: 1
Flags: HW
LayerCount: 2
Fore
SplineSet
411 258 m 1
 411 316 l 1
 497 316 l 1
 497 931 l 1
 404 931 l 1
 404 988 l 1
 782 988 l 2
 926 988 998 888 998 790 c 0
 998 695 933 598 802 590 c 1
 970 316 l 1
 1072 316 l 1
 1072 258 l 1
 921 258 l 1
 724 590 l 1
 566 590 l 1
 566 316 l 1
 662 316 l 1
 662 258 l 1
 411 258 l 1
566 931 m 1
 566 648 l 1
 782 648 l 2
 880 648 933 718 933 787 c 0
 933 859 881 931 782 931 c 2
 566 931 l 1
728 1199 m 0
 349 1199 158 904 158 617 c 0
 158 318 344 34 728 34 c 0
 1105 34 1299 328 1299 617 c 0
 1299 904 1103 1199 728 1199 c 0
728 -23 m 0
 301 -23 86 296 86 616 c 0
 86 937 303 1258 728 1258 c 0
 1155 1258 1370 937 1370 616 c 0
 1370 296 1157 -23 728 -23 c 0
EndSplineSet
EndChar

StartChar: ring
Encoding: 372 730 306
Width: 590
VWidth: 0
GlyphClass: 1
Flags: HW
LayerCount: 2
Fore
SplineSet
173 1165 m 0
 173 1103 215 1039 297 1039 c 0
 376 1039 418 1103 418 1165 c 0
 418 1228 376 1291 297 1291 c 0
 215 1291 173 1228 173 1165 c 0
125 1165 m 0
 125 1250 183 1336 296 1336 c 0
 408 1336 466 1250 466 1165 c 0
 466 1080 408 995 296 995 c 0
 183 995 125 1080 125 1165 c 0
EndSplineSet
EndChar

StartChar: s
Encoding: 105 115 307
Width: 842
VWidth: 0
GlyphClass: 1
Flags: HW
PickledData: "(dp1
S'com.typemytype.robofont.layerData'
p2
(dp3
s."
LayerCount: 2
Fore
SplineSet
90 0 m 1
 90 268 l 1
 158 268 l 1
 158 168 l 1
 195 91 324 53 441 53 c 0
 571 53 692 109 692 221 c 0
 692 341 608 379 447 397 c 0
 252 419 94 455 94 620 c 0
 94 784 241 853 391 853 c 0
 487 853 583 832 645 776 c 1
 645 836 l 1
 715 836 l 1
 715 572 l 1
 645 572 l 1
 645 695 l 1
 598 754 502 786 410 786 c 0
 291 786 176 737 176 623 c 0
 176 366 772 590 772 223 c 0
 772 62 601 -14 436 -14 c 0
 325 -14 216 14 158 73 c 1
 158 0 l 1
 90 0 l 1
EndSplineSet
EndChar

StartChar: section
Encoding: 124 167 312
Width: 963
VWidth: 0
GlyphClass: 1
Flags: HW
LayerCount: 2
Fore
SplineSet
834 571 m 1
 833 500 792 442 730 407 c 1
 790 372 826 314 826 248 c 0
 826 144 735 37 498 37 c 0
 387 37 278 66 220 125 c 1
 220 52 l 1
 152 52 l 1
 152 283 l 1
 220 283 l 1
 220 220 l 1
 257 143 386 104 503 104 c 0
 666 104 749 176 749 248 c 0
 749 490 156 306 156 612 c 0
 156 690 198 749 261 782 c 1
 196 815 156 860 156 944 c 0
 156 1082 303 1141 453 1141 c 0
 549 1141 645 1120 707 1064 c 1
 707 1124 l 1
 777 1124 l 1
 777 896 l 1
 707 896 l 1
 707 983 l 1
 660 1043 564 1074 472 1074 c 0
 353 1074 238 1036 238 947 c 0
 238 704 834 905 834 571 c 1
754 569 m 0
 754 737 470 714 324 758 c 1
 276 739 238 689 238 614 c 0
 238 463 490 481 674 439 c 1
 725 461 754 510 754 569 c 0
EndSplineSet
EndChar

StartChar: semicolon
Encoding: 49 59 313
Width: 440
VWidth: 0
GlyphClass: 1
Flags: HW
LayerCount: 2
Fore
SplineSet
166 316 m 1
 292 316 l 1
 292 193 l 2
 292 95 257 19 156 19 c 1
 156 64 l 1
 222 85 227 112 227 196 c 1
 166 196 l 1
 166 316 l 1
170 815 m 1
 287 815 l 1
 287 695 l 1
 170 695 l 1
 170 815 l 1
EndSplineSet
EndChar

StartChar: seven
Encoding: 45 55 314
Width: 821
VWidth: 0
GlyphClass: 1
Flags: HW
LayerCount: 2
Fore
SplineSet
729 1164 m 1
 102 1164 l 1
 102 916 l 1
 25 916 l 1
 25 1234 l 1
 817 1234 l 1
 817 1158 l 1
 481 792 397 467 397 52 c 1
 578 52 l 1
 578 -11 l 1
 151 -11 l 1
 151 52 l 1
 315 52 l 1
 315 362 371 761 729 1164 c 1
EndSplineSet
EndChar

StartChar: six
Encoding: 44 54 315
Width: 803
VWidth: 0
GlyphClass: 1
Flags: HW
LayerCount: 2
Fore
SplineSet
710 354 m 0
 710 556 554 658 398 658 c 0
 240 658 82 553 82 344 c 0
 82 194 183 49 393 49 c 0
 605 49 710 202 710 354 c 0
497 1361 m 1
 564 1314 l 1
 213 678 l 1
 278 710 345 726 408 726 c 0
 615 726 791 570 791 371 c 0
 791 168 653 -23 393 -23 c 0
 198 -23 5 128 5 341 c 0
 5 484 140 697 140 697 c 1
 497 1361 l 1
EndSplineSet
EndChar

StartChar: slash
Encoding: 37 47 316
Width: 537
VWidth: 0
GlyphClass: 1
Flags: HW
LayerCount: 2
Fore
SplineSet
43 -23 m 1
 415 1255 l 1
 486 1255 l 1
 118 -23 l 1
 43 -23 l 1
EndSplineSet
EndChar

StartChar: sterling
Encoding: 120 163 318
Width: 1096
VWidth: 0
GlyphClass: 1
Flags: HW
LayerCount: 2
Fore
SplineSet
481 204 m 1
 487 236 491 269 491 301 c 0
 491 392 467 480 432 562 c 1
 184 562 l 1
 184 611 l 1
 407 611 l 1
 353 714 291 828 291 937 c 0
 291 1138 424 1255 642 1255 c 0
 849 1255 959 1146 959 968 c 1
 883 968 l 1
 883 1097 820 1189 649 1189 c 0
 473 1189 378 1109 378 954 c 0
 378 828 443 734 507 611 c 1
 882 611 l 1
 882 562 l 1
 523 562 l 1
 552 480 569 402 569 324 c 0
 569 269 561 212 543 156 c 1
 604 78 690 44 780 44 c 0
 923 44 965 148 965 262 c 1
 1015 262 l 1
 1017 247 1018 233 1018 218 c 0
 1018 78 941 -29 785 -29 c 0
 688 -29 597 12 526 107 c 1
 467 -32 309 -47 262 -47 c 0
 113 -47 49 31 49 120 c 0
 49 245 159 300 267 300 c 0
 351 300 436 265 481 204 c 1
119 120 m 0
 119 41 187 7 258 7 c 0
 346 7 443 55 466 154 c 1
 420 211 343 244 271 244 c 0
 193 244 119 209 119 120 c 0
EndSplineSet
EndChar

StartChar: t
Encoding: 106 116 320
Width: 517
VWidth: 0
GlyphClass: 1
Flags: HW
PickledData: "(dp1
S'com.typemytype.robofont.layerData'
p2
(dp3
s."
LayerCount: 2
Fore
SplineSet
141 781 m 1
 16 781 l 1
 16 836 l 1
 141 836 l 1
 141 1148 l 1
 220 1166 l 1
 220 836 l 1
 419 836 l 1
 419 781 l 1
 220 781 l 1
 220 238 l 2
 220 122 220 60 357 60 c 2
 435 60 l 1
 435 0 l 1
 354 0 l 2
 141 0 141 128 141 250 c 2
 141 781 l 1
EndSplineSet
EndChar

StartChar: thorn
Encoding: 211 254 322
Width: 1083
VWidth: 0
GlyphClass: 1
Flags: HW
LayerCount: 2
Fore
SplineSet
24 1234 m 1
 252 1234 l 1
 252 695 l 1
 327 784 461 854 611 854 c 0
 897 854 1050 644 1050 434 c 0
 1050 240 933 -14 614 -14 c 0
 449 -14 299 73 252 125 c 1
 249 -360 l 1
 8 -360 l 1
 8 -300 l 1
 173 -300 l 1
 173 1174 l 1
 24 1174 l 1
 24 1234 l 1
971 426 m 0
 971 624 835 787 615 787 c 0
 488 787 386 756 252 619 c 1
 252 193 l 1
 397 82 495 53 617 53 c 0
 857 53 971 245 971 426 c 0
EndSplineSet
EndChar

StartChar: three
Encoding: 41 51 323
Width: 896
VWidth: 0
GlyphClass: 1
Flags: HW
LayerCount: 2
Fore
SplineSet
123 1026 m 1
 52 1057 l 1
 128 1201 280 1256 435 1256 c 0
 626 1256 832 1142 832 930 c 0
 832 793 740 698 614 660 c 1
 761 625 854 500 854 350 c 0
 854 125 646 -19 435 -19 c 0
 267 -19 103 60 27 216 c 1
 91 257 l 1
 160 119 291 50 443 50 c 0
 613 50 770 170 770 348 c 0
 770 605 539 617 341 617 c 2
 302 617 l 1
 302 697 l 1
 372 697 l 2
 542 697 747 710 747 929 c 0
 747 1099 585 1183 433 1183 c 0
 305 1183 185 1146 123 1026 c 1
EndSplineSet
EndChar

StartChar: threequarters
Encoding: 147 190 324
Width: 1315
VWidth: 0
GlyphClass: 1
Flags: HW
LayerCount: 2
Fore
SplineSet
503 829 m 1
 599 794 647 716 647 595 c 0
 647 471 513 352 337 352 c 0
 227 352 108 412 57 526 c 1
 117 565 l 1
 164 467 244 418 355 418 c 0
 470 418 571 505 571 603 c 0
 571 702 536 737 468 768 c 0
 434 783 374 789 285 789 c 2
 249 789 l 1
 249 863 l 1
 283 863 l 2
 491 863 554 907 554 1001 c 0
 554 1122 455 1177 347 1177 c 0
 247 1177 178 1140 140 1067 c 1
 74 1097 l 1
 125 1197 217 1247 349 1247 c 0
 491 1247 632 1162 632 1002 c 0
 632 923 589 865 503 829 c 1
927 316 m 1
 1265 866 l 1
 1357 866 l 1
 1357 323 l 1
 1535 323 l 1
 1535 260 l 1
 1357 260 l 1
 1357 61 l 1
 1469 61 l 1
 1469 0 l 1
 1172 0 l 1
 1172 61 l 1
 1284 61 l 1
 1284 260 l 1
 936 260 l 1
 927 316 l 1
1284 323 m 1
 1284 768 l 1
 1193 616 1106 476 1017 323 c 1
 1284 323 l 1
1015 1255 m 1
 1086 1255 l 1
 718 -23 l 1
 643 -23 l 1
 1015 1255 l 1
EndSplineSet
EndChar

StartChar: uni00B3
Encoding: 136 179 325
Width: 811
VWidth: 0
GlyphClass: 1
Flags: HW
LayerCount: 2
Fore
SplineSet
175 702 m 1
 109 732 l 1
 165 841 274 882 384 882 c 0
 520 882 667 799 667 648 c 0
 667 560 614 496 538 464 c 1
 628 431 682 348 682 250 c 0
 682 90 535 -13 384 -13 c 0
 265 -13 148 46 92 161 c 1
 152 200 l 1
 200 101 289 53 390 53 c 0
 502 53 606 132 606 248 c 0
 606 415 451 424 320 424 c 2
 284 424 l 1
 284 498 l 1
 347 498 l 2
 458 498 589 508 589 648 c 0
 589 758 483 812 382 812 c 0
 300 812 219 786 175 702 c 1
EndSplineSet
EndChar

StartChar: tilde
Encoding: 374 732 326
Width: 717
VWidth: 0
GlyphClass: 1
Flags: HW
LayerCount: 2
Fore
SplineSet
163 1028 m 1
 125 1028 l 1
 135 1118 186 1157 249 1157 c 0
 335 1157 412 1110 478 1110 c 0
 515 1110 543 1126 552 1153 c 1
 589 1153 l 1
 580 1072 537 1022 465 1022 c 0
 366 1022 292 1069 222 1069 c 0
 186 1069 171 1055 163 1028 c 1
EndSplineSet
EndChar

StartChar: trademark
Encoding: 400 8482 327
Width: 1634
VWidth: 0
GlyphClass: 1
Flags: HW
LayerCount: 2
Fore
SplineSet
90 1236 m 1
 642 1236 l 1
 642 1026 l 1
 585 1026 l 1
 585 1183 l 1
 393 1183 l 1
 393 660 l 1
 480 660 l 1
 480 612 l 1
 248 612 l 1
 248 660 l 1
 334 660 l 1
 334 1183 l 1
 146 1183 l 1
 146 1026 l 1
 90 1026 l 1
 90 1236 l 1
1144 638 m 1
 910 1115 l 1
 910 661 l 1
 990 661 l 1
 990 612 l 1
 774 612 l 1
 774 661 l 1
 853 661 l 1
 853 1187 l 1
 774 1187 l 1
 774 1236 l 1
 915 1236 l 1
 1144 760 l 1
 1218 916 1292 1080 1365 1236 c 1
 1506 1236 l 1
 1506 1187 l 1
 1428 1187 l 1
 1428 661 l 1
 1506 661 l 1
 1506 612 l 1
 1291 612 l 1
 1291 661 l 1
 1370 661 l 1
 1370 1114 l 1
 1144 638 l 1
EndSplineSet
EndChar

StartChar: two
Encoding: 40 50 328
Width: 837
VWidth: 0
GlyphClass: 1
Flags: HW
PickledData: "(dp1
S'com.typemytype.robofont.layerData'
p2
(dp3
s."
LayerCount: 2
Fore
SplineSet
42 0 m 1
 42 80 l 1
 156 192 726 659 726 910 c 0
 726 1085 620 1183 446 1183 c 0
 270 1183 149 1074 149 895 c 0
 149 856 155 816 165 778 c 1
 80 778 l 1
 72 816 68 854 68 893 c 0
 68 1121 227 1255 448 1255 c 0
 663 1255 812 1128 812 910 c 0
 812 637 296 217 152 78 c 1
 813 78 l 1
 813 0 l 1
 42 0 l 1
EndSplineSet
EndChar

StartChar: uni00B2
Encoding: 135 178 329
Width: 811
VWidth: 0
GlyphClass: 1
Flags: HW
LayerCount: 2
Fore
SplineSet
639 0 m 1
 133 0 l 1
 133 70 l 1
 206 143 602 462 602 635 c 0
 602 749 534 812 418 812 c 0
 304 812 224 740 224 624 c 0
 224 598 230 565 237 535 c 1
 159 535 l 1
 153 564 151 593 151 623 c 0
 151 786 264 881 420 881 c 0
 574 881 680 791 680 635 c 0
 680 449 360 191 241 72 c 1
 639 72 l 1
 639 0 l 1
EndSplineSet
EndChar

StartChar: u
Encoding: 107 117 330
Width: 982
VWidth: 0
GlyphClass: 1
Flags: HW
PickledData: "(dp1
S'com.typemytype.robofont.layerData'
p2
(dp3
s."
LayerCount: 2
Fore
SplineSet
820 58 m 1
 976 58 l 1
 976 0 l 1
 753 0 l 1
 745 104 l 1
 612 25 534 -14 409 -14 c 0
 207 -14 146 114 146 223 c 2
 146 776 l 1
 -12 776 l 1
 -12 836 l 1
 225 836 l 1
 225 239 l 2
 225 136 254 53 416 53 c 0
 546 53 639 110 741 173 c 1
 741 776 l 1
 584 776 l 1
 584 836 l 1
 820 836 l 1
 820 58 l 1
EndSplineSet
EndChar

StartChar: underscore
Encoding: 85 95 338
Width: 1016
VWidth: 0
GlyphClass: 1
Flags: HW
LayerCount: 2
Fore
SplineSet
871 0 m 1
 871 -62 l 1
 139 -62 l 1
 139 0 l 1
 871 0 l 1
EndSplineSet
EndChar

StartChar: uni0237
Encoding: 367 567 399
Width: 333
VWidth: 0
GlyphClass: 1
Flags: HW
LayerCount: 2
Fore
SplineSet
215 -34 m 2
 215 779 l 1
 78 779 l 1
 78 836 l 1
 294 836 l 1
 294 -22 l 2
 294 -143 294 -271 80 -271 c 2
 0 -271 l 1
 0 -211 l 1
 78 -211 l 2
 215 -211 215 -149 215 -34 c 2
EndSplineSet
EndChar

StartChar: uni030F
Encoding: 377 783 400
Width: 627
VWidth: 0
GlyphClass: 1
Flags: HW
LayerCount: 2
Fore
SplineSet
289 985 m 1
 258 985 l 1
 104 1234 l 1
 230 1234 l 1
 289 985 l 1
499 985 m 1
 468 985 l 1
 314 1234 l 1
 440 1234 l 1
 499 985 l 1
EndSplineSet
EndChar

StartChar: uni0311
Encoding: 378 785 401
Width: 854
VWidth: 0
GlyphClass: 1
Flags: HW
LayerCount: 2
Fore
SplineSet
218 1080 m 1
 131 1080 l 1
 144 1195 263 1272 431 1272 c 0
 594 1272 709 1194 721 1080 c 1
 642 1080 l 1
 626 1171 546 1218 431 1218 c 0
 311 1218 234 1171 218 1080 c 1
EndSplineSet
EndChar

StartChar: uni0326
Encoding: 379 806 402
Width: 457
VWidth: 0
GlyphClass: 1
Flags: HW
LayerCount: 2
Fore
SplineSet
145 -78 m 1
 145 108 l 1
 319 108 l 1
 319 -43 314 31 309 -37 c 0
 298 -172 302 -271 154 -277 c 1
 154 -205 l 1
 197 -194 220 -160 220 -78 c 1
 145 -78 l 1
EndSplineSet
EndChar

StartChar: ff
Encoding: 421 64256 403
Width: 968
VWidth: 0
GlyphClass: 1
Flags: HW
LayerCount: 2
Fore
SplineSet
485 0 m 1
 485 60 l 1
 640 60 l 1
 640 779 l 1
 235 779 l 1
 235 60 l 1
 411 60 l 1
 411 0 l 1
 1 0 l 1
 1 60 l 1
 156 60 l 1
 156 779 l 1
 1 779 l 1
 1 836 l 1
 156 836 l 1
 156 1064 l 2
 156 1175 241 1234 325 1234 c 0
 406 1234 486 1180 489 1066 c 1
 414 1066 l 1
 414 1138 371 1172 328 1172 c 0
 282 1172 235 1134 235 1066 c 2
 235 836 l 1
 640 836 l 1
 640 1064 l 2
 640 1175 727 1234 813 1234 c 0
 895 1234 977 1180 980 1066 c 1
 905 1066 l 1
 905 1138 861 1172 816 1172 c 0
 768 1172 719 1134 719 1066 c 2
 719 836 l 1
 939 836 l 1
 939 779 l 1
 719 779 l 1
 719 60 l 1
 910 60 l 1
 910 0 l 1
 485 0 l 1
EndSplineSet
Ligature2: "'liga' Standard Ligatures in Latin lookup 0-1" f f
EndChar

StartChar: ffi
Encoding: 422 64259 404
Width: 1364
VWidth: 0
GlyphClass: 1
Flags: HW
LayerCount: 2
Fore
SplineSet
1132 778 m 1
 718 778 l 1
 718 60 l 1
 889 60 l 1
 889 0 l 1
 484 0 l 1
 484 60 l 1
 639 60 l 1
 639 778 l 1
 235 778 l 1
 235 60 l 1
 396 60 l 1
 396 0 l 1
 1 0 l 1
 1 60 l 1
 156 60 l 1
 156 778 l 1
 1 778 l 1
 1 836 l 1
 156 836 l 1
 156 974 l 2
 156 1144 302 1234 446 1234 c 0
 552 1234 656 1205 705 1144 c 1
 765 1211 859 1248 946 1248 c 0
 1075 1248 1231 1199 1231 1090 c 0
 1231 1056 1206 1025 1169 1025 c 0
 1127 1025 1102 1054 1102 1081 c 0
 1102 1100 1112 1120 1130 1130 c 1
 1085 1168 1018 1186 948 1186 c 0
 838 1186 718 1109 718 972 c 2
 718 836 l 1
 1211 836 l 1
 1211 60 l 1
 1364 60 l 1
 1364 0 l 1
 982 0 l 1
 982 60 l 1
 1132 60 l 1
 1132 778 l 1
659 1071 m 1
 657 1140 556 1172 452 1172 c 0
 345 1172 235 1102 235 976 c 2
 235 836 l 1
 639 836 l 1
 639 970 l 2
 639 1007 646 1041 659 1071 c 1
EndSplineSet
Ligature2: "'liga' Standard Ligatures in Latin lookup 0-1" f f i
EndChar

StartChar: v
Encoding: 108 118 409
Width: 1048
VWidth: 0
GlyphClass: 1
Flags: HW
PickledData: "(dp1
S'com.typemytype.robofont.layerData'
p2
(dp3
s."
LayerCount: 2
Fore
SplineSet
399 776 m 1
 232 776 l 1
 534 71 l 1
 812 776 l 1
 655 776 l 1
 655 836 l 1
 1047 836 l 1
 1047 776 l 1
 902 776 l 1
 582 0 l 1
 492 0 l 1
 150 776 l 1
 1 776 l 1
 1 836 l 1
 399 836 l 1
 399 776 l 1
EndSplineSet
EndChar

StartChar: w
Encoding: 109 119 410
Width: 1555
VWidth: 0
GlyphClass: 1
Flags: HW
PickledData: "(dp1
S'com.typemytype.robofont.layerData'
p2
(dp3
s."
LayerCount: 2
Fore
SplineSet
375 776 m 1
 222 776 l 1
 468 65 l 1
 729 776 l 1
 586 776 l 1
 586 836 l 1
 966 836 l 1
 966 776 l 1
 820 776 l 1
 1083 65 l 1
 1321 776 l 1
 1179 776 l 1
 1179 836 l 1
 1551 836 l 1
 1551 776 l 1
 1411 776 l 1
 1132 0 l 1
 1042 0 l 1
 779 710 l 1
 514 0 l 1
 424 0 l 1
 144 776 l 1
 4 776 l 1
 4 836 l 1
 375 836 l 1
 375 776 l 1
EndSplineSet
EndChar

StartChar: x
Encoding: 110 120 411
Width: 1056
VWidth: 0
GlyphClass: 1
Flags: HW
PickledData: "(dp1
S'com.typemytype.robofont.layerData'
p2
(dp3
s."
LayerCount: 2
Fore
SplineSet
432 776 m 1
 275 776 l 1
 525 481 l 1
 772 776 l 1
 624 776 l 1
 624 836 l 1
 1021 836 l 1
 1021 776 l 1
 862 776 l 1
 571 426 l 1
 881 60 l 1
 1032 60 l 1
 1032 0 l 1
 637 0 l 1
 637 60 l 1
 801 60 l 1
 532 378 l 1
 269 60 l 1
 407 60 l 1
 407 0 l 1
 24 0 l 1
 24 60 l 1
 174 60 l 1
 485 433 l 1
 197 776 l 1
 48 776 l 1
 48 836 l 1
 432 836 l 1
 432 776 l 1
EndSplineSet
EndChar

StartChar: y
Encoding: 111 121 412
Width: 1054
VWidth: 0
GlyphClass: 1
Flags: HW
PickledData: "(dp1
S'com.typemytype.robofont.layerData'
p2
(dp3
s."
LayerCount: 2
Fore
SplineSet
163 -274 m 1
 163 -206 l 1
 216 -206 l 2
 332 -206 419 -200 461 -104 c 2
 531 58 l 1
 475 58 l 1
 155 776 l 1
 -9 776 l 1
 -9 836 l 1
 390 836 l 1
 390 776 l 1
 242 776 l 1
 541 89 l 1
 817 776 l 1
 650 776 l 1
 650 836 l 1
 1043 836 l 1
 1043 776 l 1
 908 776 l 1
 534 -127 l 2
 474 -271 353 -274 184 -274 c 0
 177 -274 170 -274 163 -274 c 1
EndSplineSet
EndChar

StartChar: yen
Encoding: 122 165 415
Width: 1266
VWidth: 0
GlyphClass: 1
Flags: HW
LayerCount: 2
Fore
SplineSet
1014 288 m 1
 1014 226 l 1
 678 226 l 1
 678 62 l 1
 838 62 l 1
 838 0 l 1
 435 0 l 1
 435 62 l 1
 596 62 l 1
 596 226 l 1
 265 226 l 1
 265 288 l 1
 596 288 l 1
 596 433 l 1
 265 433 l 1
 265 496 l 1
 560 496 l 1
 154 1171 l 1
 -4 1171 l 1
 -4 1234 l 1
 399 1234 l 1
 399 1171 l 1
 242 1171 l 1
 639 508 l 1
 1029 1171 l 1
 870 1171 l 1
 870 1234 l 1
 1273 1234 l 1
 1273 1171 l 1
 1117 1171 l 1
 714 496 l 1
 1014 496 l 1
 1014 433 l 1
 678 433 l 1
 678 288 l 1
 1014 288 l 1
EndSplineSet
EndChar

StartChar: z
Encoding: 112 122 416
Width: 837
VWidth: 0
GlyphClass: 1
Flags: HW
PickledData: "(dp1
S'com.typemytype.robofont.layerData'
p2
(dp3
s."
LayerCount: 2
Fore
SplineSet
757 0 m 1
 80 0 l 1
 80 67 l 1
 656 776 l 1
 170 776 l 1
 170 583 l 1
 101 583 l 1
 101 836 l 1
 739 836 l 1
 739 764 l 1
 170 58 l 1
 688 58 l 1
 688 277 l 1
 757 277 l 1
 757 0 l 1
EndSplineSet
EndChar

StartChar: zero
Encoding: 38 48 420
Width: 984
VWidth: 0
GlyphClass: 1
Flags: HW
LayerCount: 2
Fore
SplineSet
492 -23 m 0
 174 -23 44 251 44 616 c 0
 44 974 174 1255 492 1255 c 0
 810 1255 940 974 940 616 c 0
 940 251 810 -23 492 -23 c 0
492 1182 m 0
 232 1182 128 968 128 616 c 0
 128 233 240 48 492 48 c 0
 744 48 856 233 856 616 c 0
 856 968 752 1182 492 1182 c 0
EndSplineSet
EndChar

